<svg width="80" height="80" viewBox="0 0 80 80" fill="none" xmlns="http://www.w3.org/2000/svg">
<circle opacity="0.8" cx="40" cy="39.999" r="40" fill="url(#paint0_linear_2166_7510)"/>
<g clip-path="url(#clip0_2166_7510)">
<path d="M38.3103 43.1775C34.794 42.2716 32.3358 40.3504 31.5267 36.6956C30.5465 32.2755 33.316 27.949 37.7346 26.9338C41.9822 25.9654 46.323 28.6519 47.4121 32.9471C47.7544 34.2747 47.77 35.6179 47.4277 36.9611C47.3188 37.3828 47.1321 37.539 46.6809 37.539C45.1717 37.5078 43.6781 37.5078 42.1689 37.539C41.2353 37.5547 40.7064 38.1482 40.8775 38.976C41.002 39.6164 41.4376 39.8663 42.06 39.8663C43.3047 39.8663 44.5338 39.8663 45.9652 39.8663C44.6427 41.7093 42.9468 42.6464 40.8931 43.1618C41.422 43.2556 41.951 43.3336 42.48 43.4274C48.9836 44.5207 54.538 49.8467 55.9228 56.3442C56.3428 58.3278 54.9581 59.9834 52.8577 59.9834C46.4475 59.999 40.0529 59.9834 33.6427 59.9834C31.1222 59.9834 28.6172 59.9834 26.0967 59.9834C23.8874 59.9834 22.5805 58.2809 23.1095 56.1099C24.7431 49.3938 30.2353 44.3333 37.0189 43.3024C37.4546 43.2556 37.8902 43.2243 38.3103 43.1775Z" fill="url(#paint1_linear_2166_7510)"/>
<path d="M48.1119 41.1157C50.6013 36.9611 50.6169 32.9314 48.1275 28.808C48.8587 28.808 49.59 28.808 50.3524 28.808C48.921 25.5437 45.0002 22.6542 40.4726 22.3731C35.3693 22.0607 30.515 24.6847 28.648 28.7456C29.4103 28.7456 30.126 28.7456 30.904 28.7456C28.3835 33.9935 28.3835 36.1333 30.8573 41.0689C29.7215 41.0689 28.5702 41.1938 27.4655 41.0376C25.8163 40.7877 24.6183 39.2727 24.5872 37.539C24.5405 35.8209 24.5716 34.1029 24.5872 32.3848C24.5872 32.0724 24.6338 31.7444 24.7427 31.4633C26.4853 26.8088 29.0836 22.9353 33.969 21.0455C41.7951 18.0154 50.1968 21.7952 53.4952 29.5265C54.6932 32.3535 54.3821 35.1181 54.3665 37.9295C54.3509 39.7725 52.7017 41.0689 50.8502 41.1157C49.9634 41.1314 49.0765 41.1157 48.1119 41.1157Z" fill="url(#paint2_linear_2166_7510)"/>
</g>
<defs>
<linearGradient id="paint0_linear_2166_7510" x1="8.88889" y1="11.1101" x2="61.2963" y2="79.999" gradientUnits="userSpaceOnUse">
<stop stop-color="#FDAEFF"/>
<stop offset="1" stop-color="#9F85F2"/>
</linearGradient>
<linearGradient id="paint1_linear_2166_7510" x1="27.8866" y1="33.784" x2="56.2983" y2="58.2845" gradientUnits="userSpaceOnUse">
<stop stop-color="white"/>
<stop offset="1" stop-color="white" stop-opacity="0.33"/>
</linearGradient>
<linearGradient id="paint2_linear_2166_7510" x1="28.9892" y1="24.4769" x2="46.8562" y2="46.4156" gradientUnits="userSpaceOnUse">
<stop stop-color="white"/>
<stop offset="1" stop-color="white" stop-opacity="0.33"/>
</linearGradient>
<clipPath id="clip0_2166_7510">
<rect width="33" height="40" fill="white" transform="translate(23 19.999)"/>
</clipPath>
</defs>
</svg>
