<svg width="80" height="80" viewBox="0 0 80 80" fill="none" xmlns="http://www.w3.org/2000/svg">
<circle opacity="0.8" cx="40" cy="39.999" r="40" fill="url(#paint0_linear_2166_7459)"/>
<g clip-path="url(#clip0_2166_7459)">
<path d="M55.2366 38.8269C56.7368 39.2582 58.1621 39.6708 59.5873 40.0646C59.9998 40.1771 60.0561 40.4209 60.0373 40.8147C59.6435 49.7411 53.23 57.5236 44.6224 59.4739C33.5207 62.0056 22.7378 55.0482 20.4124 43.8902C18.1245 32.9573 25.7007 22.0431 36.7837 20.2803C43.1222 19.2676 48.6918 20.9741 53.4738 25.2123C53.9614 25.6436 54.1864 25.6061 54.5615 25.156C55.0491 24.5935 55.5929 24.0684 56.1555 23.562C56.7931 22.962 57.4119 23.0745 57.6557 23.8996C58.7246 27.5564 59.7748 31.232 60.8062 34.9076C61.0125 35.6389 60.4874 36.1265 59.7373 35.9015C56.0805 34.9076 52.4424 33.8762 48.7856 32.826C47.9417 32.5822 47.8104 31.9446 48.448 31.2695C49.0106 30.6882 49.5732 30.0881 50.1733 29.5442C50.5296 29.2067 50.5484 29.0191 50.1546 28.6816C46.854 25.8312 43.0284 24.4622 38.6965 24.856C32.2268 25.4373 27.0509 29.8818 25.3444 36.1828C23.0003 44.7904 29.0763 53.8105 37.8339 55.0482C47.0041 56.3422 55.4991 49.1223 55.2366 39.5583C55.2366 39.3333 55.2366 39.127 55.2366 38.8269Z" fill="url(#paint1_linear_2166_7459)"/>
<path d="M43.7975 36.8016C43.235 36.8391 42.5598 36.8579 41.9785 35.9578C41.2846 34.8888 39.0155 34.9826 38.0779 35.9203C37.4778 36.5203 37.5153 37.2142 38.1904 37.7768C38.7905 38.3019 39.5406 38.3769 40.2907 38.4144C41.9785 38.5082 43.46 39.0707 44.5664 40.3834C46.573 42.7838 45.6728 46.1406 42.6349 47.4345C41.8847 47.7533 41.5097 48.0721 41.6597 48.8973C41.7722 49.4974 41.4722 49.6661 40.9283 49.6099C40.6283 49.5724 40.3095 49.6099 39.9907 49.6099C39.5219 49.6099 38.978 49.7412 38.603 49.5349C38.1717 49.2911 38.4342 48.6722 38.4342 48.2409C38.4342 47.7346 38.0591 47.7346 37.7591 47.6221C36.0338 46.9282 34.8524 45.7468 34.4586 43.8715C34.3648 43.4027 34.4398 43.1589 34.9837 43.2151C35.4525 43.2526 35.9213 43.2151 36.3901 43.2151C37.0277 43.2151 37.5341 43.1589 37.9841 43.9278C38.678 45.1467 41.2659 45.0717 42.1285 43.9653C42.6349 43.3089 42.4661 42.7463 41.8847 42.2587C41.2846 41.7337 40.5345 41.6586 39.7844 41.6211C38.0966 41.5274 36.6152 40.9648 35.5087 39.6333C33.5022 37.2142 34.4023 33.8574 37.459 32.5635C38.2092 32.2447 38.603 31.9446 38.4342 31.1195C38.3029 30.5194 38.6217 30.3506 39.1656 30.4069C39.4656 30.4444 39.7844 30.4069 40.1032 30.4069C40.572 30.4069 41.1159 30.2756 41.4909 30.4819C41.9222 30.7257 41.6597 31.3445 41.6597 31.7759C41.6597 32.2822 42.0348 32.2822 42.3348 32.3947C43.9476 33.0511 45.0915 34.12 45.5603 35.8827C45.7666 36.6704 45.5978 36.8954 44.8102 36.8016C44.5664 36.7829 44.3039 36.8016 43.7975 36.8016Z" fill="url(#paint2_linear_2166_7459)"/>
</g>
<defs>
<linearGradient id="paint0_linear_2166_7459" x1="8.28829" y1="-0.000977116" x2="49.7297" y2="83.6026" gradientUnits="userSpaceOnUse">
<stop stop-color="#BBE897"/>
<stop offset="1" stop-color="#08CD87"/>
</linearGradient>
<linearGradient id="paint1_linear_2166_7459" x1="26.0611" y1="28.4731" x2="60.3643" y2="58.9099" gradientUnits="userSpaceOnUse">
<stop stop-color="white"/>
<stop offset="1" stop-color="white" stop-opacity="0.33"/>
</linearGradient>
<linearGradient id="paint2_linear_2166_7459" x1="36.0876" y1="34.4529" x2="49.4985" y2="41.2298" gradientUnits="userSpaceOnUse">
<stop stop-color="white"/>
<stop offset="1" stop-color="white" stop-opacity="0.33"/>
</linearGradient>
<clipPath id="clip0_2166_7459">
<rect width="40.8626" height="40" fill="white" transform="translate(20 19.999)"/>
</clipPath>
</defs>
</svg>
