<svg width="80" height="80" viewBox="0 0 80 80" fill="none" xmlns="http://www.w3.org/2000/svg">
<circle opacity="0.8" cx="39.999" cy="40" r="40" fill="url(#paint0_linear_2160_5167)"/>
<path d="M29.7065 53.7316C29.8732 53.4139 29.9844 53.2067 30.0955 53.0133C31.8459 49.9882 33.6241 46.9632 35.3605 43.9381C35.6106 43.496 35.9023 43.3579 36.4024 43.3579C42.626 43.3717 48.8496 43.3717 55.0731 43.3717C55.2537 43.3717 55.4482 43.3579 55.6288 43.3855C56.4762 43.4822 56.893 44.1729 56.4901 44.9326C55.0315 47.6676 53.5311 50.3888 52.0586 53.1238C51.7808 53.6487 51.3084 53.7454 50.7667 53.7454C47.9466 53.7454 45.1265 53.7454 42.2926 53.7454C38.4029 53.7454 34.5131 53.7454 30.6373 53.7454C30.3595 53.7316 30.0955 53.7316 29.7065 53.7316Z" fill="#2683FB"/>
<path d="M31.7726 25.8154C31.9254 26.0364 32.0365 26.2022 32.1337 26.368C33.8702 29.3516 35.5928 32.3491 37.3432 35.3189C37.5655 35.6919 37.5516 35.9405 37.3432 36.3135C34.1203 41.8387 30.9113 47.3778 27.6883 52.9031C27.4383 53.3452 27.1604 53.7181 26.577 53.7043C26.0074 53.6905 25.7435 53.3037 25.5073 52.8617C24.1181 50.2924 22.7289 47.7232 21.3258 45.1539C21.048 44.6428 21.0063 44.2008 21.312 43.6759C24.7155 37.8605 28.1051 32.0314 31.5086 26.2022C31.5642 26.0917 31.6475 25.9812 31.7726 25.8154Z" fill="#01AB47"/>
<path d="M54.9317 41.2574C54.6122 41.2712 54.39 41.285 54.1677 41.285C50.7642 41.285 47.3607 41.2712 43.971 41.2988C43.4709 41.2988 43.1792 41.1745 42.9291 40.7187C39.8174 35.3315 36.6917 29.972 33.5799 24.5987C32.8297 23.3417 33.2326 22.651 34.7051 22.6372C37.5252 22.6372 40.3453 22.6372 43.1792 22.6372C43.7904 22.6372 44.235 22.803 44.5545 23.3555C47.9441 29.2123 51.3615 35.0553 54.765 40.8983C54.8067 40.9811 54.8345 41.064 54.9317 41.2574Z" fill="#FEB901"/>
<path d="M63.0567 49.9201C63.0567 53.6354 60.0444 56.6473 56.3284 56.6473C52.6124 56.6473 49.6001 53.6354 49.6001 49.9201C49.6001 46.2048 52.6124 43.1929 56.3284 43.1929C60.0444 43.1929 63.0567 46.2048 63.0567 49.9201Z" fill="#F7832E" stroke="white" stroke-width="0.5"/>
<mask id="path-6-inside-1_2160_5167" fill="white">
<path d="M53.9826 50.1549C54.2336 50.4059 54.4762 50.6485 54.7273 50.8995C54.9448 51.117 55.1624 51.3345 55.3799 51.5521C55.5389 51.711 55.5472 51.9369 55.3966 52.0791C55.246 52.2297 55.0201 52.2213 54.8611 52.0624C54.4595 51.6608 54.0579 51.2592 53.6562 50.8577C53.514 50.7155 53.3718 50.5732 53.2295 50.431C53.0622 50.2637 53.0622 50.0378 53.2295 49.8705C53.7734 49.3267 54.3173 48.7745 54.8695 48.2308C54.9866 48.1136 55.1289 48.0885 55.2795 48.1471C55.4134 48.2057 55.497 48.3395 55.497 48.4901C55.497 48.5905 55.4468 48.6742 55.3715 48.7494C54.9281 49.1928 54.4762 49.6446 54.0328 50.088C54.0244 50.1215 54.0077 50.1382 53.9826 50.1549Z"/>
</mask>
<path d="M53.9826 50.1549C54.2336 50.4059 54.4762 50.6485 54.7273 50.8995C54.9448 51.117 55.1624 51.3345 55.3799 51.5521C55.5389 51.711 55.5472 51.9369 55.3966 52.0791C55.246 52.2297 55.0201 52.2213 54.8611 52.0624C54.4595 51.6608 54.0579 51.2592 53.6562 50.8577C53.514 50.7155 53.3718 50.5732 53.2295 50.431C53.0622 50.2637 53.0622 50.0378 53.2295 49.8705C53.7734 49.3267 54.3173 48.7745 54.8695 48.2308C54.9866 48.1136 55.1289 48.0885 55.2795 48.1471C55.4134 48.2057 55.497 48.3395 55.497 48.4901C55.497 48.5905 55.4468 48.6742 55.3715 48.7494C54.9281 49.1928 54.4762 49.6446 54.0328 50.088C54.0244 50.1215 54.0077 50.1382 53.9826 50.1549Z" fill="white"/>
<path d="M53.9826 50.1549L52.8733 48.4908L50.843 49.8441L52.5685 51.5693L53.9826 50.1549ZM55.3966 52.0791L54.0235 50.625L54.0027 50.6446L53.9825 50.6648L55.3966 52.0791ZM54.8695 48.2308L56.2728 49.6558L56.2782 49.6505L56.2836 49.6451L54.8695 48.2308ZM55.2795 48.1471L56.081 46.3147L56.043 46.2981L56.0043 46.283L55.2795 48.1471ZM54.0328 50.088L52.6187 48.6737L52.2269 49.0654L52.0925 49.6029L54.0328 50.088ZM52.5685 51.5693C52.694 51.6947 52.8174 51.8181 52.9408 51.9415C53.0642 52.0649 53.1876 52.1883 53.3132 52.3138L56.1414 49.4852C56.0159 49.3597 55.8924 49.2363 55.769 49.1129C55.6456 48.9895 55.5222 48.8661 55.3967 48.7406L52.5685 51.5693ZM53.3132 52.3138C53.324 52.3247 53.3125 52.3132 53.3233 52.324C53.3371 52.3378 53.3197 52.3204 53.3335 52.3342C53.3336 52.3343 53.3437 52.3444 53.3437 52.3444C53.3942 52.3949 53.3035 52.3042 53.3539 52.3546C53.3877 52.3884 53.3406 52.3412 53.3743 52.375C53.3811 52.3817 53.388 52.3887 53.3947 52.3954C53.4017 52.4023 53.4082 52.4088 53.4151 52.4158C53.4334 52.434 53.402 52.4027 53.4202 52.4209C53.4457 52.4464 53.3998 52.4005 53.4253 52.426C53.4257 52.4264 53.4262 52.4268 53.4266 52.4273C53.427 52.4277 53.4274 52.4281 53.4279 52.4285C53.428 52.4287 53.4303 52.4309 53.4304 52.4311C53.4394 52.4401 53.4265 52.4272 53.4355 52.4362C53.4941 52.4947 53.4178 52.4184 53.4763 52.477C53.5414 52.542 53.4521 52.4527 53.5171 52.5177C53.5673 52.5679 53.5077 52.5084 53.5579 52.5585C53.5781 52.5787 53.5785 52.5791 53.5987 52.5993C53.6103 52.6109 53.6075 52.6081 53.6191 52.6197C53.6261 52.6267 53.6223 52.6229 53.6293 52.6299C53.6327 52.6334 53.636 52.6366 53.6395 52.6401C53.6675 52.6681 53.693 52.6936 53.7211 52.7217C53.7916 52.7922 53.6913 52.6919 53.7618 52.7625C53.7824 52.783 53.7821 52.7827 53.8026 52.8032C53.8266 52.8272 53.8194 52.82 53.8434 52.844C53.8487 52.8493 53.8483 52.8489 53.8536 52.8542C53.8877 52.8883 53.8297 52.8303 53.8638 52.8644C53.867 52.8676 53.8708 52.8714 53.874 52.8746C53.8788 52.8793 53.8795 52.8801 53.8842 52.8848C53.8874 52.888 53.8861 52.8867 53.8893 52.8899C53.8924 52.893 53.8914 52.892 53.8944 52.895C53.8951 52.8957 53.9039 52.9045 53.9046 52.9052C53.9075 52.9081 53.9221 52.9227 53.925 52.9256C53.9449 52.9455 53.9459 52.9464 53.9658 52.9664L56.794 50.1377C56.7231 50.0668 56.8241 50.1678 56.7532 50.0969C56.7271 50.0709 56.7589 50.1026 56.7328 50.0766C56.7324 50.0761 56.732 50.0757 56.7315 50.0753C56.7311 50.0749 56.7307 50.0744 56.7303 50.074C56.7282 50.0719 56.7298 50.0735 56.7277 50.0715C56.7273 50.071 56.7269 50.0706 56.7264 50.0702C56.726 50.0698 56.7256 50.0693 56.7252 50.0689C56.7247 50.0685 56.7243 50.0681 56.7239 50.0676C56.7235 50.0672 56.723 50.0668 56.7226 50.0664C56.7141 50.0578 56.7261 50.0698 56.7175 50.0613C56.7171 50.0608 56.7167 50.0604 56.7162 50.06C56.7158 50.0596 56.7154 50.0591 56.715 50.0587C56.7145 50.0583 56.7141 50.0579 56.7137 50.0574C56.7133 50.057 56.7128 50.0566 56.7124 50.0562C56.6457 49.9894 56.6976 50.0413 56.6308 49.9746C56.5066 49.8503 56.592 49.9357 56.4677 49.8115C56.3435 49.6873 56.4287 49.7725 56.3045 49.6483C56.265 49.6088 56.3339 49.6776 56.2943 49.6381C56.259 49.6028 56.3194 49.6632 56.2841 49.6279C56.2796 49.6234 56.2861 49.6299 56.2816 49.6254C56.2796 49.6234 56.281 49.6248 56.279 49.6228C56.2525 49.5963 56.3004 49.6442 56.2739 49.6177C56.2285 49.5723 56.3143 49.6581 56.2688 49.6126C56.267 49.6108 56.2656 49.6094 56.2637 49.6075C56.2552 49.599 56.2519 49.5957 56.2433 49.5871C56.2424 49.5862 56.2341 49.5779 56.2331 49.5769C56.2274 49.5712 56.2287 49.5725 56.2229 49.5667C56.2135 49.5573 56.1916 49.5354 56.1821 49.526C56.1026 49.4464 56.2209 49.5648 56.1414 49.4852L53.3132 52.3138ZM53.9658 52.9664C53.7218 52.7224 53.5208 52.3494 53.5055 51.8885C53.4896 51.4125 53.6796 50.9497 54.0235 50.625L56.7698 53.5332C57.8692 52.4951 57.6182 50.9618 56.794 50.1377L53.9658 52.9664ZM53.9825 50.6648C54.2907 50.3567 54.7292 50.1725 55.1979 50.1879C55.6554 50.203 56.0292 50.402 56.2752 50.6481L53.447 53.4767C54.2977 54.3273 55.7927 54.5113 56.8107 53.4934L53.9825 50.6648ZM56.2752 50.6481C56.1934 50.5662 56.3383 50.7111 56.2564 50.6292C56.2389 50.6117 56.2551 50.6279 56.2376 50.6104C56.2046 50.5774 56.2517 50.6246 56.2188 50.5916C56.218 50.5908 56.2172 50.59 56.2164 50.5892C56.2156 50.5884 56.2148 50.5877 56.2141 50.5869C56.2133 50.5861 56.2125 50.5853 56.2117 50.5845C56.2109 50.5837 56.2101 50.583 56.2093 50.5822C56.2069 50.5798 56.2023 50.5752 56.1999 50.5728C56.1854 50.5583 56.205 50.5778 56.1905 50.5633C56.1758 50.5486 56.1958 50.5686 56.1811 50.5539C56.0913 50.4641 56.2615 50.6343 56.1717 50.5445C56.1691 50.542 56.1648 50.5377 56.1623 50.5351C56.1378 50.5106 56.1774 50.5502 56.1529 50.5257C56.1521 50.5249 56.1513 50.5241 56.1505 50.5233C56.1497 50.5226 56.1489 50.5218 56.1482 50.521C56.1473 50.5201 56.1443 50.5171 56.1435 50.5163C56.1244 50.4972 56.1437 50.5165 56.1246 50.4975C56.0384 50.4112 56.0603 50.4331 55.974 50.3469C55.9198 50.2926 55.9906 50.3635 55.9364 50.3092C55.9344 50.3073 55.9289 50.3018 55.9269 50.2998C55.9167 50.2896 55.9277 50.3006 55.9175 50.2904C55.8882 50.2611 55.9374 50.3103 55.9081 50.281C55.7979 50.1707 56.009 50.3818 55.8987 50.2716C55.8629 50.2357 55.8969 50.2698 55.8611 50.2339C55.8597 50.2325 55.8248 50.1977 55.8234 50.1963C55.7727 50.1456 55.7988 50.1716 55.7481 50.121C55.6795 50.0524 55.7414 50.1143 55.6728 50.0457C55.6474 50.0204 55.6228 49.9958 55.5975 49.9704C55.5873 49.9603 55.5888 49.9617 55.5787 49.9516C55.5605 49.9335 55.578 49.9509 55.5598 49.9328C55.5328 49.9057 55.5492 49.9222 55.5222 49.8951C55.5193 49.8922 55.5204 49.8933 55.5175 49.8904C55.5061 49.879 55.5242 49.8971 55.5128 49.8857C55.4645 49.8374 55.5516 49.9246 55.5034 49.8763C55.4973 49.8702 55.5047 49.8776 55.4986 49.8716C55.4979 49.8708 55.4971 49.87 55.4963 49.8692C55.4955 49.8684 55.4947 49.8677 55.4939 49.8669C55.4661 49.839 55.5124 49.8853 55.4845 49.8575C55.481 49.854 55.4692 49.8421 55.4657 49.8386C55.4588 49.8318 55.4679 49.8408 55.461 49.8339C55.4602 49.8331 55.4571 49.8301 55.4563 49.8292C55.4171 49.7901 55.486 49.859 55.4469 49.8198C55.3862 49.7592 55.4887 49.8616 55.4281 49.801C55.3968 49.7697 55.4405 49.8135 55.4092 49.7822C55.2872 49.6602 55.4935 49.8665 55.3716 49.7445C55.357 49.73 55.2355 49.6085 55.221 49.5939C55.1272 49.5002 55.2394 49.6124 55.1457 49.5186C55.0527 49.4257 55.1633 49.5363 55.0703 49.4434L52.2421 52.272C52.3736 52.4034 52.186 52.2159 52.3174 52.3473C52.332 52.3618 52.3123 52.3422 52.3269 52.3567C52.3345 52.3643 52.3287 52.3585 52.3363 52.3661C52.3938 52.4237 52.2881 52.318 52.3457 52.3755C52.3491 52.3789 52.3517 52.3815 52.3551 52.3849C52.3992 52.429 52.3204 52.3503 52.3645 52.3943C52.4029 52.4327 52.3356 52.3654 52.3739 52.4038C52.4325 52.4624 52.3342 52.364 52.3928 52.4226C52.3939 52.4237 52.3963 52.4261 52.3975 52.4273C52.4035 52.4334 52.3961 52.4259 52.4022 52.432C52.4095 52.4394 52.3995 52.4293 52.4069 52.4367C52.4077 52.4375 52.4084 52.4383 52.4092 52.4391C52.41 52.4398 52.4108 52.4406 52.4116 52.4414C52.4608 52.4906 52.3812 52.4111 52.4304 52.4602C52.443 52.4728 52.4366 52.4665 52.4492 52.4791C52.47 52.4998 52.4473 52.4771 52.4681 52.4979C52.4761 52.5059 52.4789 52.5087 52.4869 52.5167C52.5077 52.5375 52.4755 52.5053 52.4963 52.5261C52.4971 52.5269 52.4979 52.5277 52.4986 52.5285C52.4994 52.5293 52.5002 52.53 52.501 52.5308C52.5048 52.5346 52.5019 52.5317 52.5057 52.5355C52.5205 52.5504 52.5003 52.5301 52.5151 52.5449C52.5159 52.5457 52.5167 52.5465 52.5175 52.5473C52.5183 52.5481 52.519 52.5489 52.5198 52.5496C52.5243 52.5541 52.52 52.5498 52.5245 52.5543C52.6078 52.6376 52.4601 52.4899 52.5434 52.5732C52.5535 52.5834 52.5708 52.6006 52.581 52.6108C52.5859 52.6157 52.5808 52.6106 52.5857 52.6155C52.5865 52.6163 52.5873 52.6171 52.5881 52.6179C52.5889 52.6187 52.5896 52.6194 52.5904 52.6202C52.6033 52.6331 52.5823 52.6121 52.5951 52.6249C52.5959 52.6257 52.5967 52.6265 52.5975 52.6273C52.5983 52.6281 52.5991 52.6289 52.5998 52.6296C52.6235 52.6533 52.5856 52.6154 52.6093 52.6391C52.6366 52.6664 52.5913 52.6211 52.6187 52.6485C52.6318 52.6616 52.6808 52.7106 52.694 52.7238C52.765 52.7948 52.6982 52.728 52.7693 52.7991C52.8596 52.8894 52.7542 52.784 52.8446 52.8743C52.9352 52.9649 52.8293 52.8591 52.9199 52.9496C52.9907 53.0204 52.9244 52.9541 52.9952 53.0249C53.0537 53.0834 53.012 53.0418 53.0705 53.1002C53.085 53.1147 53.0748 53.1045 53.0893 53.1191C53.096 53.1257 53.0921 53.1218 53.0987 53.1285C53.1031 53.1328 53.1038 53.1335 53.1082 53.1379C53.1089 53.1387 53.1097 53.1394 53.1105 53.1402C53.1113 53.141 53.1121 53.1418 53.1129 53.1426C53.1136 53.1434 53.1144 53.1442 53.1152 53.1449C53.116 53.1457 53.1168 53.1465 53.1176 53.1473C53.1285 53.1583 53.116 53.1457 53.127 53.1567C53.2208 53.2505 53.052 53.0817 53.1458 53.1755C53.1781 53.2078 53.4147 53.4444 53.447 53.4767L56.2752 50.6481ZM55.0703 49.4434C54.9992 49.3722 54.9281 49.3011 54.857 49.23C54.7859 49.1589 54.7147 49.0878 54.6436 49.0167L51.8154 51.8453C51.8865 51.9164 51.9577 51.9876 52.0288 52.0587C52.0999 52.1298 52.171 52.2009 52.2421 52.272L55.0703 49.4434ZM54.6436 49.0167C54.8858 49.2588 55.104 49.6527 55.104 50.1507C55.104 50.6488 54.8858 51.0427 54.6436 51.2848L51.8154 48.4562C51.4059 48.8656 51.104 49.4561 51.104 50.1507C51.104 50.8454 51.4059 51.4359 51.8154 51.8453L54.6436 49.0167ZM54.6436 51.2848C55.2028 50.7257 55.7269 50.1934 56.2728 49.6558L53.4662 46.8057C52.9076 47.3557 52.344 47.9277 51.8154 48.4562L54.6436 51.2848ZM56.2836 49.6451C56.0985 49.8302 55.8169 50.0128 55.4484 50.0854C55.0854 50.1568 54.7716 50.0955 54.5547 50.0111L56.0043 46.283C55.6368 46.1402 55.1765 46.0621 54.6755 46.1607C54.1689 46.2605 53.7577 46.5142 53.4554 46.8164L56.2836 49.6451ZM54.478 49.9795C53.8381 49.6996 53.497 49.0831 53.497 48.4901H57.497C57.497 47.5959 56.9886 46.7117 56.081 46.3147L54.478 49.9795ZM53.497 48.4901C53.497 47.85 53.8381 47.4544 53.9574 47.3351L56.7856 50.1638C57.0556 49.8939 57.497 49.3309 57.497 48.4901H53.497ZM53.9574 47.3351C53.9317 47.3608 53.9727 47.3198 53.947 47.3455C53.9469 47.3457 53.9368 47.3557 53.9366 47.3559C53.8964 47.3962 53.9665 47.326 53.9262 47.3663C53.8345 47.4581 54.0076 47.285 53.9158 47.3767C53.905 47.3876 53.9059 47.3867 53.895 47.3975C53.8944 47.3981 53.8904 47.4021 53.8898 47.4027C53.8721 47.4205 53.9023 47.3902 53.8846 47.4079C53.8795 47.413 53.8793 47.4133 53.8742 47.4184C53.8556 47.4369 53.8511 47.4415 53.8325 47.46C53.8286 47.464 53.7947 47.4978 53.7908 47.5018C53.7444 47.5481 53.7537 47.5389 53.7072 47.5853C53.6015 47.691 53.7711 47.5215 53.6654 47.6271C53.5591 47.7334 53.7298 47.5627 53.6235 47.669C53.5744 47.7181 53.6308 47.6617 53.5816 47.7109C53.5146 47.7779 53.6382 47.6543 53.5712 47.7213C53.5677 47.7248 53.5642 47.7283 53.5607 47.7318C53.4604 47.8321 53.64 47.6525 53.5397 47.7527C53.5116 47.7809 53.4841 47.8084 53.4559 47.8366C53.4552 47.8373 53.4147 47.8778 53.4139 47.8785C53.3879 47.9046 53.398 47.8945 53.372 47.9205C53.3578 47.9347 53.3442 47.9482 53.33 47.9624C53.25 48.0424 53.3681 47.9244 53.288 48.0044C53.2683 48.0241 53.2973 47.9952 53.2776 48.0149C53.2758 48.0166 53.2688 48.0237 53.2671 48.0254C53.2662 48.0263 53.2653 48.0271 53.2644 48.028C53.2636 48.0289 53.2627 48.0298 53.2618 48.0306C53.2609 48.0315 53.2601 48.0324 53.2592 48.0332C53.2583 48.0341 53.2574 48.035 53.2566 48.0359C53.2441 48.0484 53.2638 48.0286 53.2513 48.0411C53.2505 48.042 53.2496 48.0429 53.2487 48.0437C53.2478 48.0446 53.247 48.0455 53.2461 48.0464C53.2458 48.0467 53.2254 48.067 53.2251 48.0673C53.2001 48.0923 53.2291 48.0633 53.2041 48.0883C53.1766 48.1159 53.2107 48.0817 53.1831 48.1093C53.1508 48.1417 53.1945 48.0979 53.1622 48.1303C53.1349 48.1576 53.1475 48.1449 53.1202 48.1722C53.0639 48.2285 53.0087 48.2837 52.9526 48.3398C52.9206 48.3718 52.9636 48.3288 52.9316 48.3608C52.9308 48.3616 52.9299 48.3625 52.929 48.3634C52.9282 48.3642 52.9273 48.3651 52.9264 48.366C52.9255 48.3669 52.9247 48.3677 52.9238 48.3686C52.9229 48.3695 52.9221 48.3703 52.9212 48.3712C52.9193 48.3731 52.9178 48.3746 52.9159 48.3764C52.9151 48.3773 52.9142 48.3782 52.9133 48.3791C52.9125 48.3799 52.9116 48.3808 52.9107 48.3817C52.8739 48.4185 52.9371 48.3553 52.9003 48.3921C52.846 48.4464 52.9441 48.3483 52.8898 48.4026C52.8828 48.4096 52.8759 48.4165 52.8689 48.4235C52.7506 48.5418 52.9454 48.347 52.8271 48.4653C52.8146 48.4778 52.8187 48.4737 52.8062 48.4862C52.7821 48.5102 52.8198 48.4726 52.7958 48.4966C52.7949 48.4975 52.794 48.4984 52.7932 48.4992C52.7923 48.5001 52.7914 48.501 52.7905 48.5018C52.7781 48.5142 52.7977 48.4946 52.7853 48.507C52.7106 48.5818 52.8392 48.4532 52.7645 48.5279C52.733 48.5594 52.7751 48.5173 52.7436 48.5488C52.7388 48.5535 52.7067 48.5857 52.7019 48.5904C52.6744 48.6179 52.6461 48.6463 52.6187 48.6737L55.4469 51.5023C55.5274 51.4219 55.408 51.5412 55.4885 51.4607C55.5383 51.4109 55.4491 51.5001 55.4989 51.4503C55.5204 51.4288 55.4878 51.4614 55.5093 51.4399C55.5453 51.404 55.4941 51.4551 55.5301 51.4191C55.6036 51.3456 55.54 51.4092 55.6135 51.3357C55.7054 51.2438 55.5634 51.3858 55.6553 51.2939C55.7163 51.233 55.6152 51.334 55.6762 51.273C55.679 51.2702 55.6943 51.255 55.6971 51.2521C55.7384 51.2108 55.6976 51.2516 55.7389 51.2103C55.8457 51.1035 55.6531 51.2962 55.7599 51.1894C55.81 51.1393 55.7202 51.2291 55.7703 51.1789C55.779 51.1703 55.7669 51.1824 55.7755 51.1737C55.7926 51.1566 55.7637 51.1856 55.7808 51.1685C55.7945 51.1547 55.8508 51.0985 55.8646 51.0847C55.8927 51.0565 55.9202 51.029 55.9484 51.0009C55.9624 50.9869 55.9764 50.9729 55.9904 50.9589C56.0043 50.945 55.9974 50.9519 56.0113 50.9379C56.0589 50.8904 55.9848 50.9645 56.0323 50.917C56.0358 50.9135 56.0394 50.9099 56.0428 50.9065C56.0437 50.9056 56.0446 50.9047 56.0454 50.9039C56.0463 50.903 56.0472 50.9021 56.0481 50.9012C56.0489 50.9004 56.0498 50.8995 56.0507 50.8986C56.0516 50.8977 56.0524 50.8969 56.0533 50.896C56.0804 50.8689 56.0472 50.9021 56.0743 50.875C56.1543 50.795 56.0362 50.913 56.1163 50.833C56.1285 50.8208 56.125 50.8243 56.1372 50.8121C56.1381 50.8112 56.139 50.8103 56.1399 50.8094C56.1407 50.8086 56.1416 50.8077 56.1425 50.8068C56.1434 50.8059 56.1442 50.8051 56.1451 50.8042C56.146 50.8033 56.1469 50.8025 56.1477 50.8016C56.1551 50.7942 56.1456 50.8037 56.153 50.7963C56.2138 50.7355 56.0974 50.8519 56.1582 50.7911C56.169 50.7804 56.158 50.7913 56.1687 50.7806C56.1878 50.7615 56.1601 50.7892 56.1792 50.7701C56.2439 50.7054 56.1355 50.8138 56.2002 50.7491C56.2074 50.7419 56.214 50.7353 56.2212 50.7282C56.2351 50.7143 56.2283 50.7211 56.2421 50.7072C56.2562 50.6931 56.27 50.6793 56.2841 50.6652C56.3434 50.6059 56.2353 50.714 56.2946 50.6548C56.2981 50.6512 56.3015 50.6478 56.3051 50.6443C56.3829 50.5664 56.2482 50.7011 56.326 50.6233C56.3484 50.601 56.3142 50.6352 56.3365 50.6128C56.3639 50.5855 56.3196 50.6297 56.347 50.6023C56.3479 50.6015 56.3487 50.6006 56.3496 50.5997C56.3505 50.5989 56.3514 50.598 56.3522 50.5971C56.3531 50.5962 56.354 50.5954 56.3549 50.5945C56.3557 50.5936 56.3566 50.5927 56.3575 50.5919C56.3662 50.5832 56.3593 50.5901 56.368 50.5814C56.3777 50.5716 56.3687 50.5807 56.3784 50.5709C56.3879 50.5614 56.3794 50.5699 56.3889 50.5604C56.4894 50.46 56.3094 50.6399 56.4099 50.5395C56.4273 50.522 56.4133 50.536 56.4308 50.5186C56.4546 50.4948 56.4175 50.5318 56.4413 50.5081C56.4577 50.4916 56.43 50.5193 56.4465 50.5029C56.4547 50.4947 56.4436 50.5058 56.4517 50.4976C56.4526 50.4968 56.4535 50.4959 56.4544 50.495C56.4552 50.4941 56.4561 50.4933 56.457 50.4924C56.4578 50.4915 56.4587 50.4906 56.4596 50.4898C56.4605 50.4889 56.4613 50.488 56.4622 50.4872C56.4715 50.4779 56.4582 50.4912 56.4674 50.4819C56.4762 50.4731 56.4639 50.4855 56.4727 50.4767C56.4735 50.4758 56.4744 50.475 56.4753 50.4741C56.4762 50.4732 56.477 50.4723 56.4779 50.4715C56.4812 50.4682 56.4798 50.4695 56.4831 50.4662C56.5035 50.4458 56.4732 50.4762 56.4936 50.4558C56.5248 50.4246 56.4729 50.4765 56.5041 50.4453C56.5047 50.4447 56.5139 50.4355 56.5145 50.4349C56.5258 50.4236 56.5242 50.4252 56.5354 50.414C56.5939 50.3555 56.5606 50.3888 56.619 50.3304C56.6195 50.3299 56.6603 50.2891 56.6607 50.2887C56.7082 50.2412 56.6549 50.2945 56.7024 50.247C56.7363 50.2131 56.6894 50.26 56.7232 50.2262C56.7241 50.2253 56.725 50.2244 56.7258 50.2236C56.7267 50.2227 56.7276 50.2218 56.7284 50.221C56.7292 50.2202 56.7329 50.2165 56.7336 50.2158C56.7345 50.2149 56.7354 50.214 56.7362 50.2132C56.7371 50.2123 56.738 50.2114 56.7388 50.2106C56.7397 50.2097 56.7406 50.2088 56.7414 50.208C56.7423 50.2071 56.7432 50.2062 56.744 50.2054C56.811 50.1384 56.7187 50.2307 56.7856 50.1638L53.9574 47.3351ZM52.0925 49.6029C52.1497 49.3741 52.2605 49.1179 52.4523 48.8782C52.6281 48.6585 52.8091 48.5335 52.8733 48.4908L55.0918 51.8191C55.1811 51.7596 55.383 51.6179 55.5756 51.3773C55.7841 51.1167 55.9075 50.8354 55.973 50.5731L52.0925 49.6029Z" fill="white" mask="url(#path-6-inside-1_2160_5167)"/>
<mask id="path-8-inside-2_2160_5167" fill="white">
<path d="M58.6574 50.079C58.4483 49.8699 58.2391 49.6607 58.0383 49.46C57.7789 49.2006 57.5111 48.9413 57.2517 48.6736C57.1513 48.5732 57.1179 48.4393 57.1597 48.3055C57.2015 48.1716 57.2936 48.0879 57.4358 48.0628C57.5697 48.0377 57.6868 48.0796 57.7789 48.1716C58.0717 48.4644 58.3562 48.7572 58.6491 49.0417C58.9001 49.2926 59.1595 49.552 59.4105 49.803C59.5695 49.9619 59.5695 50.1962 59.4105 50.3551C58.8666 50.8989 58.3311 51.4343 57.7873 51.9781C57.6534 52.112 57.486 52.1454 57.3354 52.0701C57.1179 51.953 57.076 51.6686 57.2517 51.4929C57.4107 51.3256 57.5781 51.1666 57.7454 50.9993C58.0299 50.7149 58.3144 50.4304 58.6072 50.1376C58.6156 50.1209 58.6323 50.1041 58.6574 50.079Z"/>
</mask>
<path d="M58.6574 50.079C58.4483 49.8699 58.2391 49.6607 58.0383 49.46C57.7789 49.2006 57.5111 48.9413 57.2517 48.6736C57.1513 48.5732 57.1179 48.4393 57.1597 48.3055C57.2015 48.1716 57.2936 48.0879 57.4358 48.0628C57.5697 48.0377 57.6868 48.0796 57.7789 48.1716C58.0717 48.4644 58.3562 48.7572 58.6491 49.0417C58.9001 49.2926 59.1595 49.552 59.4105 49.803C59.5695 49.9619 59.5695 50.1962 59.4105 50.3551C58.8666 50.8989 58.3311 51.4343 57.7873 51.9781C57.6534 52.112 57.486 52.1454 57.3354 52.0701C57.1179 51.953 57.076 51.6686 57.2517 51.4929C57.4107 51.3256 57.5781 51.1666 57.7454 50.9993C58.0299 50.7149 58.3144 50.4304 58.6072 50.1376C58.6156 50.1209 58.6323 50.1041 58.6574 50.079Z" fill="white"/>
<path d="M58.6574 50.079L60.0716 51.4934L61.4861 50.079L60.0716 48.6647L58.6574 50.079ZM57.2517 48.6736L58.6881 47.2819L58.6771 47.2705L58.6659 47.2592L57.2517 48.6736ZM57.4358 48.0628L57.7833 50.0324L57.7939 50.0306L57.8043 50.0286L57.4358 48.0628ZM58.6491 49.0417L60.0632 47.6273L60.0529 47.6171L60.0425 47.607L58.6491 49.0417ZM57.3354 52.0701L56.3873 53.8311L56.414 53.8455L56.4411 53.8591L57.3354 52.0701ZM57.2517 51.4929L58.6659 52.9072L58.684 52.8891L58.7016 52.8705L57.2517 51.4929ZM58.6072 50.1376L60.0213 51.5519L60.2509 51.3224L60.396 51.0321L58.6072 50.1376ZM60.0716 48.6647C59.967 48.5601 59.8624 48.4556 59.7588 48.352C59.6553 48.2485 59.5528 48.146 59.4524 48.0456L56.6242 50.8743C56.7246 50.9747 56.8271 51.0772 56.9306 51.1807C57.0342 51.2842 57.1388 51.3888 57.2433 51.4934L60.0716 48.6647ZM59.4524 48.0456C59.1611 47.7544 58.9346 47.5363 58.6881 47.2819L55.8154 50.0653C56.0876 50.3463 56.3967 50.6468 56.6242 50.8743L59.4524 48.0456ZM58.6659 47.2592C58.8554 47.4487 59.0149 47.7059 59.0927 48.0169C59.1706 48.3287 59.1517 48.6362 59.0686 48.9021L55.2508 47.7088C54.9835 48.564 55.2193 49.4697 55.8376 50.0879L58.6659 47.2592ZM59.0686 48.9021C58.9984 49.1267 58.8538 49.4034 58.5866 49.6402C58.3182 49.878 58.0224 49.9902 57.7833 50.0324L57.0883 46.0933C56.707 46.1605 56.2941 46.3271 55.9336 46.6466C55.5744 46.9649 55.3628 47.3503 55.2508 47.7088L59.0686 48.9021ZM57.8043 50.0286C57.56 50.0744 57.281 50.0657 57.0011 49.9741C56.7256 49.884 56.5138 49.7349 56.3648 49.5859L59.193 46.7573C58.6693 46.2337 57.8974 45.9415 57.0673 46.0971L57.8043 50.0286ZM56.3648 49.5859C56.6287 49.8498 56.9506 50.1801 57.2556 50.4763L60.0425 47.607C59.7618 47.3343 59.5148 47.0791 59.193 46.7573L56.3648 49.5859ZM57.235 50.456C57.3605 50.5815 57.4881 50.7091 57.6157 50.8366C57.7433 50.9642 57.8709 51.0918 57.9964 51.2173L60.8246 48.3886C60.6991 48.2631 60.5715 48.1356 60.4439 48.008C60.3163 47.8804 60.1887 47.7528 60.0632 47.6273L57.235 50.456ZM57.9964 51.2173C57.719 50.9399 57.5297 50.5365 57.5297 50.079C57.5297 49.6216 57.719 49.2182 57.9964 48.9408L60.8246 51.7694C61.7648 50.8294 61.7648 49.3287 60.8246 48.3886L57.9964 51.2173ZM57.9964 48.9408C57.7245 49.2127 57.4546 49.4825 57.1848 49.7523C56.9149 50.0221 56.6451 50.2919 56.3731 50.5638L59.2014 53.3924C59.4733 53.1205 59.7431 52.8507 60.013 52.5809C60.2828 52.3111 60.5527 52.0413 60.8246 51.7694L57.9964 48.9408ZM56.3731 50.5638C56.542 50.395 56.808 50.2159 57.1703 50.1424C57.5439 50.0667 57.9181 50.1255 58.2297 50.2812L56.4411 53.8591C57.4734 54.3751 58.5521 54.0416 59.2014 53.3924L56.3731 50.5638ZM58.2835 50.3091C59.25 50.8295 59.4342 52.139 58.6659 52.9072L55.8376 50.0786C54.7179 51.1982 54.9858 53.0766 56.3873 53.8311L58.2835 50.3091ZM58.7016 52.8705C58.84 52.7249 58.941 52.6321 59.1595 52.4136L56.3313 49.585C56.2151 49.7011 55.9815 49.9262 55.8019 50.1153L58.7016 52.8705ZM59.1595 52.4136C59.3018 52.2714 59.444 52.1292 59.5873 51.9859C59.7306 51.8426 59.8749 51.6983 60.0213 51.5519L57.1931 48.7233C57.0467 48.8697 56.9024 49.014 56.7591 49.1573C56.6158 49.3005 56.4736 49.4428 56.3313 49.585L59.1595 52.4136ZM60.396 51.0321C60.2864 51.2515 60.1613 51.3947 60.1208 51.4403C60.0817 51.4843 60.0453 51.5196 60.0716 51.4934L57.2433 48.6647C57.2392 48.6688 57.2242 48.6838 57.2087 48.6997C57.1928 48.716 57.1643 48.7455 57.1313 48.7826C57.0741 48.847 56.9365 49.007 56.8184 49.2431L60.396 51.0321Z" fill="white" mask="url(#path-8-inside-2_2160_5167)"/>
<defs>
<linearGradient id="paint0_linear_2160_5167" x1="79.999" y1="33.5" x2="-6.00098" y2="47" gradientUnits="userSpaceOnUse">
<stop stop-color="#94B2FF"/>
<stop offset="1" stop-color="#42B4FF" stop-opacity="0.65"/>
</linearGradient>
</defs>
</svg>
