<svg width="80" height="80" viewBox="0 0 80 80" fill="none" xmlns="http://www.w3.org/2000/svg">
<circle opacity="0.8" cx="40" cy="39.999" r="40" fill="url(#paint0_linear_2166_7495)"/>
<g clip-path="url(#clip0_2166_7495)">
<path d="M43.3208 19.999C43.3208 20.3425 43.3208 20.6235 43.3208 20.9046C43.3208 23.4807 43.3052 26.0568 43.3208 28.6329C43.3365 30.647 44.4169 31.7086 46.4213 31.7086C49.4121 31.7086 52.4186 31.7086 55.5347 31.7086C55.5347 32.0209 55.5347 32.3019 55.5347 32.5829C55.5347 40.0927 55.4877 47.6181 55.5504 55.1278C55.5817 58.4221 53.1859 60.0302 50.6335 59.999C43.6497 59.9053 36.6502 59.9678 29.6663 59.9678C26.8008 59.9678 25 58.2348 25 55.3776C25 45.12 25 34.878 25.0157 24.636C25.0157 21.732 26.8008 19.999 29.7133 19.999C33.9412 19.999 38.1691 19.999 42.397 19.999C42.6788 19.999 42.9607 19.999 43.3208 19.999ZM40.0325 37.9537C42.8511 37.9537 45.6697 37.9537 48.4882 37.9537C49.2712 37.9537 49.7879 37.4854 49.8192 36.8296C49.8506 36.1583 49.3182 35.6274 48.5665 35.6274C42.8824 35.6118 37.1826 35.6274 31.4984 35.6274C30.7938 35.6274 30.3553 36.0021 30.2614 36.6891C30.1518 37.4229 30.7624 37.9694 31.655 37.9694C34.4579 37.9537 37.2452 37.9537 40.0325 37.9537ZM39.9542 44.1989C42.8041 44.1989 45.6383 44.1989 48.4882 44.1989C49.2712 44.1989 49.7879 43.7305 49.8192 43.0747C49.8506 42.4034 49.3182 41.8726 48.5665 41.8726C42.8824 41.8569 37.1826 41.8726 31.4984 41.8726C30.7938 41.8726 30.3553 42.2473 30.2614 42.9186C30.1518 43.6524 30.7624 44.1989 31.655 44.1989C34.4266 44.1989 37.1982 44.1989 39.9542 44.1989ZM34.2544 50.444C35.1313 50.444 36.0238 50.444 36.9007 50.444C37.7619 50.4284 38.2474 50.0068 38.263 49.2886C38.2787 48.5704 37.7776 48.1021 36.932 48.1021C35.1626 48.0865 33.3931 48.0865 31.6237 48.1021C30.7938 48.1021 30.2614 48.5704 30.2457 49.2574C30.23 49.9756 30.7938 50.444 31.6707 50.444C32.5319 50.444 33.3931 50.444 34.2544 50.444Z" fill="url(#paint1_linear_2166_7495)"/>
<path d="M46.0771 20.639C48.9583 23.3713 51.8395 26.0879 54.8773 28.945C55.0026 29.0699 54.9399 29.2885 54.7677 29.3198C54.6581 29.3354 54.5798 29.351 54.5015 29.351C51.8238 29.351 49.1305 29.3354 46.4529 29.3666C45.8735 29.3666 45.6699 29.1636 45.6699 28.6016C45.6856 26.0567 45.6699 23.5118 45.6856 20.9669C45.6856 20.8888 45.7012 20.8264 45.7169 20.7483C45.7326 20.7015 45.7482 20.6546 45.7952 20.6234C45.8735 20.561 45.9988 20.561 46.0771 20.639Z" fill="url(#paint2_linear_2166_7495)"/>
</g>
<defs>
<linearGradient id="paint0_linear_2166_7495" x1="9.36937" y1="-0.000974923" x2="68.8288" y2="79.999" gradientUnits="userSpaceOnUse">
<stop stop-color="#FFCDA3"/>
<stop offset="1" stop-color="#FD6C87"/>
</linearGradient>
<linearGradient id="paint1_linear_2166_7495" x1="29.5303" y1="28.4765" x2="61.3665" y2="49.6021" gradientUnits="userSpaceOnUse">
<stop stop-color="white"/>
<stop offset="1" stop-color="white" stop-opacity="0.33"/>
</linearGradient>
<linearGradient id="paint2_linear_2166_7495" x1="47.045" y1="22.4409" x2="54.6075" y2="29.374" gradientUnits="userSpaceOnUse">
<stop stop-color="white"/>
<stop offset="1" stop-color="white" stop-opacity="0.33"/>
</linearGradient>
<clipPath id="clip0_2166_7495">
<rect width="30.566" height="40" fill="white" transform="translate(25 19.999)"/>
</clipPath>
</defs>
</svg>
