<svg xmlns="http://www.w3.org/2000/svg" width="1397.704" height="244" viewBox="0 0 1397.704 244">
  <style>
      @keyframes pulse {
        0% {
          -webkit-transform: scale(1);
          transform: scale(1);
        }
        70% {
          -webkit-transform: scale(3);
          transform: scale(3);
        }
        100% {
          -webkit-transform: scale(1);
          transform: scale(1);
        }
      } 

      @keyframes rotate {  
        from { 
          -webkit-transform: rotate(360deg);
          transform: rotate(360deg); 
        } 

        to { 
          -webkit-transform: rotate(0deg);
          transform: rotate(0deg);
        }  
      } 

    #dot-4, #dot-5, #dot-6, #dot-7, #dot-8, #dot-9 {
      animation: rotate 1s ease-in infinite;
      -webkit-animation: rotate 1s ease-in infinite;
      -webkit-transform-origin: center; -ms-transform-origin: center; transform-origin: center; transform-box: fill-box;
    }

    #dot-1,  #dot-2, #dot-3, #dot-13 {
      animation: pulse 2s ease-in-out infinite;
      -webkit-animation: pulse 2s ease-in-out infinite;
      -webkit-transform-origin: center; -ms-transform-origin: center; transform-origin: center; transform-box: fill-box;
    }

    #dot-1 {
      animation-delay: 1s;
    }

    #dot-2 {
      animation-delay: 1.5s;
    }

    #dot-3 {
      animation-delay: 1.5s;
    }

    #dot-13 {
      animation-delay: 1.8s;
    }
  </style> 

  <g id="have-project" transform="translate(-271.296 -3224)">
    <g id="dot-13">
      <path id="Path_1215" data-name="Path 1215" d="M5,0A5,5,0,1,1,0,5,5,5,0,0,1,5,0Z" transform="translate(1145 3273)" fill="rgba(255,255,255,0.35)"/>
    </g>
    <g id="dot-12">
      <path id="Path_1214" data-name="Path 1214" d="M5,0A5,5,0,1,1,0,5,5,5,0,0,1,5,0Z" transform="translate(1659 3327)" fill="rgba(255,255,255,0.35)"/>
    </g>
    <g id="dot-11">
      <path id="Path_1213" data-name="Path 1213" d="M5,0A5,5,0,1,1,0,5,5,5,0,0,1,5,0Z" transform="translate(665 3224)" fill="rgba(255,255,255,0.35)"/>
    </g>
    <g id="dot-10">
      <path id="Path_1212" data-name="Path 1212" d="M4,0A4,4,0,1,1,0,4,4,4,0,0,1,4,0Z" transform="translate(845 3460)" fill="rgba(255,255,255,0.35)"/>
    </g>
    <g id="dot-9">
      <path id="Path_1211" data-name="Path 1211" d="M7,0l7,12H0Z" transform="translate(285.696 3414.938) rotate(60)" fill="rgba(255,255,255,0.39)"/>
    </g>
    <g id="dot-8">
      <path id="Path_1210" data-name="Path 1210" d="M7,0l7,12H0Z" transform="translate(517.696 3269.08) rotate(60)" fill="rgba(255,255,255,0.39)"/>
    </g>
    <g id="dot-7">
      <path id="Path_1209" data-name="Path 1209" d="M7,0l7,12H0Z" transform="translate(1368 3250.955) rotate(60)" fill="rgba(255,255,255,0.39)"/>
    </g>
    <g id="dot-6">
      <path id="Path_1208" data-name="Path 1208" d="M7,0l7,12H0Z" transform="translate(1055.392 3424) rotate(60)" fill="rgba(255,255,255,0.39)"/>
    </g>
    <g id="dot-5">
      <g id="Path_1207" data-name="Path 1207" transform="translate(1669.26 3257.488) rotate(160)" fill="none">
        <path d="M11.409,4.442a3,3,0,0,1,5.183,0l8.777,15.046A3,3,0,0,1,22.777,24H5.223a3,3,0,0,1-2.591-4.512Z" stroke="none"/>
        <path d="M 13.99999904632568 3.953907012939453 C 13.28068923950195 3.953907012939453 12.63486862182617 4.324848175048828 12.27243900299072 4.946157455444336 L 3.495548248291016 19.99225807189941 C 3.130289077758789 20.61841773986816 3.127779006958008 21.36751747131348 3.488819122314453 21.99611663818359 C 3.849868774414062 22.62471771240234 4.498199462890625 22.99999809265137 5.223108291625977 22.99999809265137 L 22.77688980102539 22.99999809265137 C 23.50178909301758 22.99999809265137 24.15011978149414 22.62471771240234 24.51116943359375 21.99612808227539 C 24.87221908569336 21.36752700805664 24.86970901489258 20.61841773986816 24.50444984436035 19.99225807189941 L 15.72755908966064 4.946157455444336 C 15.3651294708252 4.324848175048828 14.71930885314941 3.953907012939453 13.99999904632568 3.953907012939453 M 13.99999904632568 2.95390510559082 C 15.00625896453857 2.95390510559082 16.01251983642578 3.450033187866211 16.59133911132812 4.442287445068359 L 25.36822891235352 19.48838806152344 C 26.53486824035645 21.48835754394531 25.09225845336914 23.99999809265137 22.77688980102539 23.99999809265137 L 5.223108291625977 23.99999809265137 C 2.907739639282227 23.99999809265137 1.465118408203125 21.48835754394531 2.631769180297852 19.48838806152344 L 11.40865898132324 4.442287445068359 C 11.98747825622559 3.450033187866211 12.99373912811279 2.95390510559082 13.99999904632568 2.95390510559082 Z" stroke="none" fill="rgba(255,255,255,0.38)"/>
      </g>
    </g>
    <g id="dot-4">
      <g id="Path_1206" data-name="Path 1206" transform="translate(290.972 3232.831) rotate(60)" fill="none">
        <path d="M11.409,4.442a3,3,0,0,1,5.183,0l8.777,15.046A3,3,0,0,1,22.777,24H5.223a3,3,0,0,1-2.591-4.512Z" stroke="none"/>
        <path d="M 13.99999904632568 3.953907012939453 C 13.28068923950195 3.953907012939453 12.63486862182617 4.324848175048828 12.27243900299072 4.946157455444336 L 3.495548248291016 19.99225807189941 C 3.130289077758789 20.61841773986816 3.127779006958008 21.36751747131348 3.488819122314453 21.99611663818359 C 3.849868774414062 22.62471771240234 4.498199462890625 22.99999809265137 5.223108291625977 22.99999809265137 L 22.77688980102539 22.99999809265137 C 23.50178909301758 22.99999809265137 24.15011978149414 22.62471771240234 24.51116943359375 21.99612808227539 C 24.87221908569336 21.36752700805664 24.86970901489258 20.61841773986816 24.50444984436035 19.99225807189941 L 15.72755908966064 4.946157455444336 C 15.3651294708252 4.324848175048828 14.71930885314941 3.953907012939453 13.99999904632568 3.953907012939453 M 13.99999904632568 2.95390510559082 C 15.00625896453857 2.95390510559082 16.01251983642578 3.450033187866211 16.59133911132812 4.442287445068359 L 25.36822891235352 19.48838806152344 C 26.53486824035645 21.48835754394531 25.09225845336914 23.99999809265137 22.77688980102539 23.99999809265137 L 5.223108291625977 23.99999809265137 C 2.907739639282227 23.99999809265137 1.465118408203125 21.48835754394531 2.631769180297852 19.48838806152344 L 11.40865898132324 4.442287445068359 C 11.98747825622559 3.450033187866211 12.99373912811279 2.95390510559082 13.99999904632568 2.95390510559082 Z" stroke="none" fill="rgba(255,255,255,0.38)"/>
      </g>
    </g>
    <g id="dot-3">
      <g id="Path_1205" data-name="Path 1205" transform="translate(845 3255)" fill="none">
        <path d="M7.5,0A7.5,7.5,0,1,1,0,7.5,7.5,7.5,0,0,1,7.5,0Z" stroke="none"/>
        <path d="M 7.5 2 C 4.467289924621582 2 2 4.467289924621582 2 7.5 C 2 10.53271007537842 4.467289924621582 13 7.5 13 C 10.53271007537842 13 13 10.53271007537842 13 7.5 C 13 4.467289924621582 10.53271007537842 2 7.5 2 M 7.5 0 C 11.64213943481445 0 15 3.35785961151123 15 7.5 C 15 11.64213943481445 11.64213943481445 15 7.5 15 C 3.35785961151123 15 0 11.64213943481445 0 7.5 C 0 3.35785961151123 3.35785961151123 0 7.5 0 Z" stroke="none" fill="rgba(255,255,255,0.49)"/>
      </g>
    </g>
    <g id="dot-2">
      <g id="Path_1204" data-name="Path 1204" transform="translate(560 3427)" fill="none">
        <path d="M7.5,0A7.5,7.5,0,1,1,0,7.5,7.5,7.5,0,0,1,7.5,0Z" stroke="none"/>
        <path d="M 7.5 2 C 4.467289924621582 2 2 4.467289924621582 2 7.5 C 2 10.53271007537842 4.467289924621582 13 7.5 13 C 10.53271007537842 13 13 10.53271007537842 13 7.5 C 13 4.467289924621582 10.53271007537842 2 7.5 2 M 7.5 0 C 11.64213943481445 0 15 3.35785961151123 15 7.5 C 15 11.64213943481445 11.64213943481445 15 7.5 15 C 3.35785961151123 15 0 11.64213943481445 0 7.5 C 0 3.35785961151123 3.35785961151123 0 7.5 0 Z" stroke="none" fill="rgba(255,255,255,0.49)"/>
      </g>
    </g>
    <g id="dot-1">
      <g id="Path_1203" data-name="Path 1203" transform="translate(1245 3380)" fill="none">
        <path d="M7.5,0A7.5,7.5,0,1,1,0,7.5,7.5,7.5,0,0,1,7.5,0Z" stroke="none"/>
        <path d="M 7.5 2 C 4.467289924621582 2 2 4.467289924621582 2 7.5 C 2 10.53271007537842 4.467289924621582 13 7.5 13 C 10.53271007537842 13 13 10.53271007537842 13 7.5 C 13 4.467289924621582 10.53271007537842 2 7.5 2 M 7.5 0 C 11.64213943481445 0 15 3.35785961151123 15 7.5 C 15 11.64213943481445 11.64213943481445 15 7.5 15 C 3.35785961151123 15 0 11.64213943481445 0 7.5 C 0 3.35785961151123 3.35785961151123 0 7.5 0 Z" stroke="none" fill="rgba(255,255,255,0.49)"/>
      </g>
    </g>
  </g>
</svg>
