<svg width="28" height="28" viewBox="0 0 28 28" fill="none" xmlns="http://www.w3.org/2000/svg">
<g clip-path="url(#clip0_2013_4136)">
<path d="M13.5816 -0.000111087C21.1299 -0.013803 27.1898 6.24341 27.1765 14.0204C27.1632 21.7838 21.1432 27.9862 13.6082 27.9999C6.05991 28.0136 -0.0132675 21.7564 2.17678e-05 13.9794C0.013311 6.21603 6.04662 0.0135808 13.5816 -0.000111087ZM13.5816 22.7833C15.8275 22.7285 17.781 21.9617 19.4156 20.3872C20.2528 19.5794 20.3325 18.5525 19.6548 17.7857C18.9903 17.019 17.9671 17.0327 17.1298 17.7994C14.977 19.771 12.1995 19.7573 10.0467 17.7994C9.20946 17.0327 8.18618 17.019 7.52172 17.7857C6.85726 18.5388 6.92371 19.5657 7.72106 20.3324C9.36893 21.9481 11.3357 22.7148 13.5816 22.7833ZM8.45197 12.2268C9.40879 12.2405 10.1397 11.5285 10.1663 10.5427C10.1929 9.51578 9.47524 8.76273 8.49184 8.74903C7.53501 8.74903 6.8174 9.4884 6.80411 10.4605C6.79082 11.4463 7.50843 12.2131 8.45197 12.2268ZM18.6448 12.2268C19.6016 12.2542 20.3591 11.5285 20.3857 10.5701C20.4123 9.54316 19.6947 8.77642 18.7245 8.76272C17.7677 8.74903 17.0368 9.47471 17.0235 10.4605C16.9969 11.4463 17.7013 12.2131 18.6448 12.2268Z" fill="url(#paint0_linear_2013_4136)"/>
</g>
<defs>
<linearGradient id="paint0_linear_2013_4136" x1="4.02998" y1="5.93403" x2="27.8684" y2="26.0363" gradientUnits="userSpaceOnUse">
<stop stop-color="white"/>
<stop offset="1" stop-color="white" stop-opacity="0.33"/>
</linearGradient>
<clipPath id="clip0_2013_4136">
<rect width="27.1765" height="28" fill="white"/>
</clipPath>
</defs>
</svg>
