<svg width="28" height="28" viewBox="0 0 28 28" fill="none" xmlns="http://www.w3.org/2000/svg">
<g clip-path="url(#clip0_2013_4111)">
<path d="M20.8035 11.0469C19.5348 11.0469 18.2879 11.0469 16.9973 11.0469C16.9973 9.74531 16.9973 8.47656 16.9973 7.30625C17.5223 7.39375 18.0691 7.54688 18.627 7.54688C19.2504 7.55781 19.7098 7.16406 20.0598 6.66094C20.541 5.96094 20.4863 4.93281 19.9504 4.26563C19.2723 3.42344 18.4191 3.31406 16.9863 3.88281C16.9863 2.60313 16.9863 1.34531 16.9863 0.021875C17.1613 0.0109375 17.3363 0 17.5113 0C20.4754 0 23.4504 0 26.4145 0C27.4645 0 27.9895 0.525 27.9895 1.575C27.9895 4.53906 27.9895 7.51406 27.9895 10.4781C27.9895 10.6422 27.9895 10.8063 27.9895 11.025C26.677 11.025 25.3973 11.025 24.0957 11.025C24.6754 12.4906 24.5551 13.3875 23.7238 14.0328C22.9801 14.6016 21.9082 14.6016 21.1863 14.0328C20.3223 13.3438 20.2129 12.4906 20.8035 11.0469Z" fill="url(#paint0_linear_2013_4111)"/>
<path d="M11.0351 28C11.0351 26.6547 11.0351 25.3859 11.0351 24.1063C9.5913 24.6969 8.67255 24.5656 8.0163 23.6906C7.48037 22.9688 7.4913 21.8969 8.03818 21.1969C8.73818 20.3219 9.61318 20.2016 11.0351 20.8141C11.0351 19.5344 11.0351 18.2656 11.0351 16.975C12.3476 16.975 13.5944 16.975 14.7538 16.975C14.6772 17.5219 14.5132 18.0906 14.5241 18.6594C14.5351 19.2719 14.9288 19.7422 15.4429 20.0703C16.1647 20.5297 17.171 20.4641 17.8382 19.9063C18.6476 19.2391 18.7569 18.3422 18.1772 16.975C19.4569 16.975 20.7147 16.975 22.071 16.975C22.071 17.1609 22.071 17.3578 22.071 17.5438C22.071 20.4641 22.071 23.3734 22.071 26.2938C22.071 27.475 21.5569 27.9891 20.3866 27.9891C17.4663 27.9891 14.5569 27.9891 11.6366 27.9891C11.4726 28 11.2866 28 11.0351 28Z" fill="url(#paint1_linear_2013_4111)"/>
<path d="M11.0578 5.93906C11.0578 7.2625 11.0578 8.53125 11.0578 9.81094C12.4141 9.22031 13.3547 9.34063 14 10.1609C14.5797 10.8828 14.6125 11.9328 14.0875 12.6547C13.4094 13.5844 12.5563 13.7156 11.0359 13.125C11.0359 13.8469 11.0359 14.5469 11.0359 15.2906C10.4234 15.2906 9.85469 15.2906 9.23125 15.2906C9.1 14.175 8.59687 13.2563 7.67812 12.6C6.97812 12.0859 6.19062 11.8781 5.31562 11.9219C3.54375 11.9984 2.28594 13.1906 1.79375 15.3125C1.225 15.3125 0.645312 15.3125 0.021875 15.3125C0.021875 15.1484 0 15.0063 0 14.875C0 12.3922 0 9.92031 0 7.4375C0 6.49688 0.546875 5.91719 1.47656 5.91719C4.56094 5.90625 7.63438 5.91719 10.7188 5.91719C10.8062 5.91719 10.8938 5.92813 11.0578 5.93906Z" fill="url(#paint2_linear_2013_4111)"/>
<path d="M9.38438 26.1844C9.38438 26.7859 9.38438 27.3547 9.38438 28C9.20938 28 9.03438 28 8.85938 28C6.44219 28 4.01406 28 1.59688 28C0.525 28 0 27.475 0 26.3813C0 23.2641 0 20.1578 0 16.9859C1.30156 16.9859 2.58125 16.9859 3.95938 16.9859C3.54375 16.3078 3.30313 15.6406 3.59844 14.9625C3.77344 14.5688 4.05781 14.1641 4.39687 13.9016C5.12969 13.3328 6.19062 13.4203 6.86875 14.0219C7.67812 14.7328 7.7875 15.6406 7.175 16.9422C7.91875 16.9422 8.62969 16.9422 9.37344 16.9422C9.37344 17.5766 9.37344 18.1453 9.37344 18.7141C7.06562 19.3484 5.90625 20.6719 5.97187 22.5641C6.0375 24.4453 7.25156 25.7469 9.38438 26.1844Z" fill="url(#paint3_linear_2013_4111)"/>
</g>
<defs>
<linearGradient id="paint0_linear_2013_4111" x1="18.618" y1="3.06444" x2="30.1097" y2="10.6622" gradientUnits="userSpaceOnUse">
<stop stop-color="white"/>
<stop offset="1" stop-color="white" stop-opacity="0.33"/>
</linearGradient>
<linearGradient id="paint1_linear_2013_4111" x1="9.76385" y1="19.3116" x2="19.2071" y2="30.0649" gradientUnits="userSpaceOnUse">
<stop stop-color="white"/>
<stop offset="1" stop-color="white" stop-opacity="0.33"/>
</linearGradient>
<linearGradient id="paint2_linear_2013_4111" x1="2.14415" y1="7.90454" x2="9.93391" y2="18.3149" gradientUnits="userSpaceOnUse">
<stop stop-color="white"/>
<stop offset="1" stop-color="white" stop-opacity="0.33"/>
</linearGradient>
<linearGradient id="paint3_linear_2013_4111" x1="1.3916" y1="16.5883" x2="12.0864" y2="22.6101" gradientUnits="userSpaceOnUse">
<stop stop-color="white"/>
<stop offset="1" stop-color="white" stop-opacity="0.33"/>
</linearGradient>
<clipPath id="clip0_2013_4111">
<rect width="28" height="28" fill="white"/>
</clipPath>
</defs>
</svg>
