<svg width="30" height="28" viewBox="0 0 30 28" fill="none" xmlns="http://www.w3.org/2000/svg">
<g clip-path="url(#clip0_2013_4126)">
<path d="M18.7602 20.3262C18.7602 18.227 18.7602 16.0993 18.7602 13.9858C18.7602 12.5816 18.1581 11.9574 16.8467 11.9433C15.6023 11.9433 14.3445 11.9433 13.1001 11.9433C11.8824 11.9433 11.2669 12.6099 11.2669 13.9149C11.2669 16.0567 11.2669 18.2128 11.2669 20.3972C11.0528 20.4114 10.8922 20.4539 10.7183 20.4397C8.64423 20.3972 6.5568 20.5248 4.50952 20.2695C2.16786 19.9858 0.468489 18 0.0670614 15.5461C-0.294223 13.3475 0.829773 10.9787 2.82353 9.80142C3.14467 9.61702 3.23834 9.41844 3.25172 9.03546C3.30524 6.35461 5.31238 4.41135 7.85475 4.58156C8.25618 4.60993 8.47027 4.52482 8.69775 4.14185C10.3837 1.23404 13.6085 -0.42553 16.5256 0.0851081C20.0983 0.709222 22.5871 3.10638 23.3766 6.69504C23.6308 7.84397 23.6308 7.84397 24.7415 7.98582C27.6451 8.35461 29.9199 10.922 30.0002 13.9007C30.0804 17.0922 28.0465 19.8865 25.0358 20.2553C23.0019 20.539 20.9145 20.3262 18.7602 20.3262Z" fill="url(#paint0_linear_2013_4126)"/>
<path d="M10.0352 22.7518C10.9451 22.7518 11.8683 22.7518 12.8719 22.7518C12.8719 22.4255 12.8719 22.1702 12.8719 21.9149C12.8719 19.461 12.8853 17.0071 12.8585 14.5532C12.8585 13.8865 13.086 13.617 13.7149 13.6312C14.5847 13.6596 15.4544 13.6596 16.3242 13.6312C16.9263 13.617 17.1538 13.8723 17.1538 14.5106C17.1404 16.9645 17.1404 19.4184 17.1404 21.8723C17.1404 22.1277 17.1404 22.383 17.1404 22.7376C18.1306 22.7376 19.0673 22.7376 19.8835 22.7376C18.2109 24.5248 16.5249 26.3121 14.9593 27.9716C13.4473 26.383 11.7747 24.5957 10.0352 22.7518Z" fill="url(#paint1_linear_2013_4126)"/>
</g>
<defs>
<linearGradient id="paint0_linear_2013_4126" x1="4.44903" y1="4.32731" x2="21.6046" y2="26.1958" gradientUnits="userSpaceOnUse">
<stop stop-color="white"/>
<stop offset="1" stop-color="white" stop-opacity="0.33"/>
</linearGradient>
<linearGradient id="paint1_linear_2013_4126" x1="11.4956" y1="16.67" x2="22.3966" y2="23.1741" gradientUnits="userSpaceOnUse">
<stop stop-color="white"/>
<stop offset="1" stop-color="white" stop-opacity="0.33"/>
</linearGradient>
<clipPath id="clip0_2013_4126">
<rect width="30" height="28" fill="white"/>
</clipPath>
</defs>
</svg>
