<svg width="28" height="28" viewBox="0 0 28 28" fill="none" xmlns="http://www.w3.org/2000/svg">
<g clip-path="url(#clip0_2013_4145)">
<path d="M9.47057 6.98338C10.4416 7.9544 11.3328 8.88551 12.2772 9.75012C12.49 9.94965 12.9423 10.0029 13.2615 9.97625C14.1395 9.88314 14.8045 10.1226 15.3366 10.8409C15.5361 11.1069 15.7756 11.3596 16.0416 11.5325C16.3475 11.7321 16.72 11.905 17.0791 11.9715C18.6487 12.2774 19.9257 11.7853 20.8568 10.4551C21.1228 10.0827 21.4953 9.97625 21.9475 9.97625C23.7166 10.0029 25.4858 9.98955 27.2283 9.98955C28.891 14.9245 27.3214 21.4157 22.1604 25.1933C22.0672 25.0337 21.9608 24.8741 21.881 24.7145C21.1627 23.2912 20.4444 21.8679 19.7528 20.4447C19.5798 20.0988 19.3803 19.9126 18.9946 19.9658C18.8482 19.9924 18.6753 19.9924 18.529 19.9658C17.0658 19.7131 15.9618 20.2185 15.0174 21.3891C14.2858 22.2936 13.5675 22.2271 12.7428 21.3891C12.6231 21.2694 12.5166 21.1363 12.3703 20.9767C12.5033 20.8304 12.5965 20.6575 12.7428 20.5777C14.2725 19.6333 13.9 18.1169 13.8867 16.7202C13.8867 16.5207 13.6606 16.2945 13.4744 16.1482C12.2107 15.2171 11.5988 14.0333 11.9048 12.4504C11.9314 12.3306 11.8782 12.1976 11.8649 12.0114C10.1223 12.0114 8.39313 11.9848 6.67722 12.038C6.42449 12.038 6.13185 12.3306 5.95893 12.5568C5.08102 13.7672 3.93708 14.2062 2.46059 14.0067C1.66249 13.9002 0.824489 13.9934 0.0130872 13.9934C-0.332756 6.75725 6.22496 -0.239428 13.8601 0.0266051C13.8601 1.33017 13.8601 2.62043 13.8601 3.92399C13.8202 3.9506 13.7803 4.0038 13.7404 3.9905C12.6896 3.80428 12.0112 4.37625 11.3727 5.10784C10.8007 5.73302 10.149 6.30499 9.47057 6.98338Z" fill="url(#paint0_linear_2013_4145)"/>
<path d="M20.4175 26.2708C11.9443 31.0062 1.51582 25.4727 0.119141 16.0152C0.358571 16.0019 0.584699 15.9753 0.810827 15.9753C2.14099 15.9753 3.47116 16.0019 4.80133 15.9487C5.12057 15.9354 5.43981 15.7359 5.71914 15.563C5.90536 15.4565 6.07829 15.2836 6.1847 15.0974C7.10251 13.6608 8.48589 13.9135 9.94907 14.0333C9.48351 15.4831 10.6807 16.0551 11.399 16.9064C11.6384 17.1858 11.7847 17.5582 11.8911 17.9173C12.0241 18.3696 11.7847 18.7021 11.4522 19.0081C10.7738 19.6067 10.1353 20.2451 9.44361 20.8969C10.4545 21.9078 11.3723 22.839 12.3035 23.7435C12.4099 23.8499 12.6094 23.8898 12.7823 23.9297C12.8621 23.9563 12.9552 23.9297 13.0484 23.943C14.6446 24.209 15.8949 23.7169 16.9058 22.4133C17.5443 21.5886 18.1828 21.7349 18.6484 22.6793C19.2203 23.8632 19.8189 25.047 20.4175 26.2708Z" fill="url(#paint1_linear_2013_4145)"/>
<path d="M12.3301 7.18289C13.1947 5.42707 14.6446 6.18527 15.8816 5.93253C15.8816 4.00379 15.8816 2.07505 15.8816 0.0798035C20.75 0.957713 24.1819 3.57814 26.523 7.99429C25.8712 7.99429 25.3657 7.99429 24.8735 7.99429C24.275 7.99429 23.6631 8.0608 23.0778 7.98099C21.3087 7.74156 19.8455 8.14061 18.7548 9.6703C18.3823 10.1891 17.4778 10.1226 16.999 9.657C16.826 9.48408 16.6265 9.33776 16.4802 9.13824C15.8018 8.23372 14.9638 7.87458 13.8066 7.94109C13.3277 7.96769 12.8089 7.44892 12.3301 7.18289Z" fill="url(#paint2_linear_2013_4145)"/>
</g>
<defs>
<linearGradient id="paint0_linear_2013_4145" x1="4.13189" y1="5.3545" x2="25.86" y2="26.2494" gradientUnits="userSpaceOnUse">
<stop stop-color="white"/>
<stop offset="1" stop-color="white" stop-opacity="0.33"/>
</linearGradient>
<linearGradient id="paint1_linear_2013_4145" x1="3.12916" y1="16.9163" x2="14.9679" y2="31.7665" gradientUnits="userSpaceOnUse">
<stop stop-color="white"/>
<stop offset="1" stop-color="white" stop-opacity="0.33"/>
</linearGradient>
<linearGradient id="paint2_linear_2013_4145" x1="14.4347" y1="2.18931" x2="22.8388" y2="12.6008" gradientUnits="userSpaceOnUse">
<stop stop-color="white"/>
<stop offset="1" stop-color="white" stop-opacity="0.33"/>
</linearGradient>
<clipPath id="clip0_2013_4145">
<rect width="27.8537" height="28" fill="white"/>
</clipPath>
</defs>
</svg>
