<svg width="18" height="24" viewBox="0 0 18 24" fill="none" xmlns="http://www.w3.org/2000/svg">
<path d="M14.5714 5.77778C14.5714 7.31014 13.9844 8.77974 12.9396 9.86328C11.8947 10.9468 10.4776 11.5556 9 11.5556C7.52237 11.5556 6.10525 10.9468 5.0604 9.86328C4.01556 8.77974 3.42857 7.31014 3.42857 5.77778C3.42857 4.24542 4.01556 2.77582 5.0604 1.69227C6.10525 0.608728 7.52237 0 9 0C10.4776 0 11.8947 0.608728 12.9396 1.69227C13.9844 2.77582 14.5714 4.24542 14.5714 5.77778ZM3.42857 13.3333C2.51926 13.3333 1.64719 13.7079 1.00421 14.3747C0.361223 15.0415 0 15.9459 0 16.8889C0 16.8889 0 24 9 24C18 24 18 16.8889 18 16.8889C18 15.9459 17.6388 15.0415 16.9958 14.3747C16.3528 13.7079 15.4807 13.3333 14.5714 13.3333H3.42857Z" fill="url(#paint0_linear_2013_4095)"/>
<defs>
<linearGradient id="paint0_linear_2013_4095" x1="2.25" y1="4.8" x2="14.8454" y2="20.4173" gradientUnits="userSpaceOnUse">
<stop stop-color="white" stop-opacity="0.79"/>
<stop offset="1" stop-color="white" stop-opacity="0.27"/>
</linearGradient>
</defs>
</svg>
