<svg width="80" height="83" viewBox="0 0 80 83" fill="none" xmlns="http://www.w3.org/2000/svg">
<g clip-path="url(#clip0_2042_8258)">
<path d="M67.36 58.1667C69.9093 58.1667 72.2815 58.8868 74.2819 60.1513C77.911 54.1801 80 47.1727 80 39.6911C80 17.7732 62.0845 0 39.9911 0C17.8978 0 0 17.7732 0 39.6911C0 47.1727 2.08896 54.1625 5.71808 60.1513C7.73623 58.9044 10.1084 58.1667 12.64 58.1667H67.36Z" fill="url(#paint0_linear_2042_8258)"/>
<path d="M34.4261 26.0068C34.4261 25.7157 34.4077 25.4337 34.4169 25.1426C34.4722 24.1237 35.4866 23.5324 36.4087 23.9963C36.8883 24.2329 37.3309 24.5422 37.7827 24.8333C42.0246 27.5351 46.2665 30.2461 50.5084 32.957C50.9972 33.2663 51.4398 33.612 51.4767 34.2488C51.5136 34.8856 51.1908 35.3041 50.6744 35.6316C48.8947 36.7596 47.1149 37.9059 45.3352 39.043C42.4949 40.8534 39.6639 42.6637 36.8237 44.474C36.4825 44.6923 36.1413 44.8652 35.7079 44.847C35.0071 44.8106 34.463 44.3012 34.4169 43.6098C34.3984 43.3278 34.4169 43.0367 34.4169 42.7456C34.546 42.4545 34.7673 42.2543 35.0347 42.0815C36.3718 41.199 37.7366 40.3803 39.0461 39.4706C42.2367 37.26 42.7808 32.2384 39.1383 29.4728C37.8381 28.4812 36.4364 27.6261 35.0993 26.6891C34.8226 26.5072 34.5737 26.307 34.4261 26.0068Z" fill="url(#paint1_linear_2042_8258)"/>
<path d="M34.4245 26.0066C34.9501 26.234 35.3835 26.607 35.8538 26.9163C36.8959 27.6168 37.9379 28.3082 38.9615 29.0268C41.7095 30.9554 42.6132 34.0849 41.3038 37.1051C40.8888 38.0512 40.2802 38.87 39.4318 39.4795C37.8088 40.6257 36.112 41.6628 34.4337 42.7271C34.4337 39.8342 34.4245 36.9414 34.4245 34.0485C34.4153 31.3739 34.4245 28.6902 34.4245 26.0066Z" fill="white"/>
<path d="M67.3601 83H12.64C6.798 83 2.07129 78.3109 2.07129 72.5153C2.07129 66.7197 6.798 62.0305 12.64 62.0305H67.3601C73.2021 62.0305 77.9288 66.7197 77.9288 72.5153C77.9288 78.3109 73.2021 83 67.3601 83Z" fill="url(#paint2_linear_2042_8258)"/>
<path d="M29.4936 66.3684V75.1145H34.9638V76.6424H27.8472V66.3684H29.4936Z" fill="white"/>
<path d="M36.557 66.4562C36.876 66.2981 37.1949 66.2981 37.5138 66.4562C37.8328 66.6143 37.9922 66.8953 37.9922 67.2816C37.9922 67.668 37.8328 67.949 37.5138 68.1071C37.1949 68.2651 36.876 68.2651 36.557 68.1071C36.2381 67.949 36.0786 67.668 36.0786 67.2816C36.0786 66.8953 36.2381 66.5967 36.557 66.4562ZM36.2558 69.3716V76.6424H37.7796V69.3716H36.2558Z" fill="white"/>
<path d="M46.9664 69.3892L43.8683 76.6776H42.1865L39.0708 69.3892H40.7526L41.7263 71.725L43.0186 75.0969L44.1693 72.0235L45.2669 69.3892H46.9664Z" fill="white"/>
<path d="M49.1085 73.5864C49.1793 74.1308 49.4272 74.5699 49.8521 74.9036C50.2769 75.2373 50.8257 75.3953 51.4807 75.3953C51.8702 75.3953 52.2774 75.3251 52.6668 75.1846C53.074 75.0441 53.375 74.8509 53.5874 74.6226L54.5788 75.571C54.207 75.9573 53.7467 76.2735 53.1802 76.4842C52.6137 76.695 52.0295 76.8003 51.4453 76.8003C50.2592 76.8003 49.3033 76.4491 48.5774 75.7641C47.8693 75.0616 47.4976 74.1308 47.4976 72.9717C47.4976 71.8653 47.8516 70.952 48.5597 70.2495C49.2679 69.547 50.1884 69.1958 51.3214 69.1958C52.5429 69.1958 53.4989 69.5646 54.1716 70.3198C54.8443 71.0574 55.1276 72.1463 54.9859 73.5864H49.1085ZM53.5697 72.3044C53.5343 71.7424 53.3219 71.3209 52.9324 71.0047C52.5429 70.7062 52.0295 70.5481 51.4099 70.5481C50.8434 70.5481 50.3477 70.7062 49.9406 71.0047C49.5334 71.3033 49.2679 71.7424 49.1439 72.3044H53.5697Z" fill="white"/>
<path d="M13.5429 75.8695C15.4103 75.8695 16.9242 74.3677 16.9242 72.5151C16.9242 70.6625 15.4103 69.1606 13.5429 69.1606C11.6755 69.1606 10.1616 70.6625 10.1616 72.5151C10.1616 74.3677 11.6755 75.8695 13.5429 75.8695Z" fill="white"/>
<path d="M69.538 75.8695C71.4054 75.8695 72.9193 74.3677 72.9193 72.5151C72.9193 70.6625 71.4054 69.1606 69.538 69.1606C67.6706 69.1606 66.1567 70.6625 66.1567 72.5151C66.1567 74.3677 67.6706 75.8695 69.538 75.8695Z" fill="white"/>
</g>
<defs>
<linearGradient id="paint0_linear_2042_8258" x1="8.28829" y1="-4.16044e-07" x2="33.9138" y2="68.7555" gradientUnits="userSpaceOnUse">
<stop stop-color="#BBE897"/>
<stop offset="1" stop-color="#08CD87"/>
</linearGradient>
<linearGradient id="paint1_linear_2042_8258" x1="53.6659" y1="33.1116" x2="30.9353" y2="34.4409" gradientUnits="userSpaceOnUse">
<stop stop-color="white"/>
<stop offset="1" stop-color="white" stop-opacity="0.37"/>
</linearGradient>
<linearGradient id="paint2_linear_2042_8258" x1="19.3549" y1="57.2488" x2="17.1694" y2="90.5311" gradientUnits="userSpaceOnUse">
<stop offset="0.060928" stop-color="#FF707C"/>
<stop offset="0.949857" stop-color="#FC1313"/>
</linearGradient>
<clipPath id="clip0_2042_8258">
<rect width="80" height="83" fill="white"/>
</clipPath>
</defs>
</svg>
