<svg width="80" height="80" viewBox="0 0 80 80" fill="none" xmlns="http://www.w3.org/2000/svg">
<circle opacity="0.8" cx="40" cy="39.999" r="40" fill="url(#paint0_linear_2166_7475)"/>
<g clip-path="url(#clip0_2166_7475)">
<path d="M56.2173 33.1917C54.873 31.8474 53.5913 30.5187 52.2626 29.2526C51.95 28.9556 51.4498 28.7212 51.0434 28.7524C50.7308 28.7681 50.2462 29.1745 50.1837 29.4871C50.1055 29.8622 50.2462 30.4406 50.5119 30.7376C51.6217 31.9412 52.8097 33.0822 53.9664 34.2389C54.154 34.4265 54.3259 34.6141 54.4353 34.7391C53.5756 35.6145 52.7316 36.4586 51.8093 37.3964C51.0747 36.6461 50.2931 35.8177 49.4959 35.0205C48.5112 34.0201 47.839 33.8482 47.2607 34.4109C46.6823 34.9736 46.8543 35.6926 47.8234 36.6461C48.6362 37.4433 49.4647 38.2249 50.2618 38.9908C49.3396 39.913 48.4955 40.7415 47.5889 41.6481C46.5104 40.5695 45.4006 39.4597 44.2908 38.3343C44.1032 38.1467 43.9312 37.9591 43.7437 37.7872C43.0872 37.162 42.415 37.0838 41.8992 37.584C41.3677 38.1154 41.4146 38.772 42.0711 39.4285C43.2122 40.5695 44.3533 41.7106 45.4943 42.8517C45.6507 43.008 45.807 43.1956 45.9477 43.3362C45.0723 44.1959 44.2439 45.0244 43.3216 45.931C42.3994 44.9931 41.4459 43.9927 40.4611 43.0392C39.7734 42.3671 38.898 42.4922 38.5072 43.2737C38.2103 43.8677 38.4291 44.321 38.8511 44.743C39.7734 45.6653 40.68 46.5875 41.6022 47.5097C41.6335 47.541 41.6491 47.6035 41.6335 47.5879C40.7738 48.4476 39.9453 49.2917 39.0543 50.1827C37.9133 49.0416 36.7409 47.8693 35.5686 46.6969C35.381 46.5094 35.2091 46.3218 35.0059 46.1498C34.4744 45.6809 33.7554 45.6809 33.3177 46.1186C32.8644 46.5719 32.8644 47.2909 33.3646 47.7911C34.3806 48.8384 35.4123 49.8544 36.4596 50.8861C36.7722 51.1987 37.1161 51.48 37.3662 51.7145C36.4596 52.6211 35.5999 53.4808 34.662 54.4187C33.7866 53.5277 32.8488 52.543 31.864 51.5738C31.27 50.9955 30.551 51.0111 30.0821 51.5582C29.6288 52.0897 29.6913 52.6836 30.2853 53.2933C31.2388 54.2467 32.1923 55.2002 33.1614 56.1537C31.9734 57.3573 30.8636 58.5297 29.6913 59.6395C29.1442 60.1709 28.4877 60.0459 27.8468 59.405C26.0961 57.6543 24.3455 55.9036 22.5948 54.153C21.9539 53.5121 21.2974 52.8712 20.6565 52.2147C19.7968 51.3394 19.7812 50.761 20.6565 49.9013C23.8453 46.7126 27.034 43.5238 30.2071 40.3507C36.7409 33.8482 43.2904 27.3144 49.8085 20.7493C50.6839 19.874 51.5592 19.874 52.3877 20.7337C54.6698 23.094 57.0145 25.3917 59.3279 27.7051C60.2345 28.6117 60.2189 29.1588 59.3122 30.0654C58.2962 31.0971 57.2958 32.1131 56.2173 33.1917Z" fill="url(#paint1_linear_2166_7475)"/>
<path d="M31.2537 23.0471C28.5183 25.7826 25.7828 28.518 23.063 31.2378C20.8434 29.5965 19.546 27.4551 20.14 24.5633C20.6402 22.203 22.2033 20.6556 24.5636 20.1554C27.4554 19.5301 29.5968 20.8588 31.2537 23.0471Z" fill="url(#paint2_linear_2166_7475)"/>
<path d="M48.1992 55.8255C50.7627 53.262 53.2793 50.761 55.8272 48.1975C56.046 48.7446 56.2805 49.3229 56.515 49.9169C57.5935 52.5899 58.6564 55.2628 59.735 57.9201C59.9694 58.514 60.1726 59.1237 59.6099 59.6551C59.0941 60.1397 58.5001 59.9521 57.9374 59.7333C54.7018 58.4359 51.4505 57.1385 48.1992 55.8255Z" fill="url(#paint3_linear_2166_7475)"/>
<path d="M37.6163 29.5496C36.6003 30.5657 35.5373 31.6286 34.537 32.629C32.9895 31.0971 31.442 29.5496 29.9258 28.0491C30.9262 27.0643 32.0047 25.9857 33.0207 24.9697C34.5057 26.4391 36.0532 27.9865 37.6163 29.5496Z" fill="url(#paint4_linear_2166_7475)"/>
<path d="M28.1438 29.8936C29.6131 31.3629 31.145 32.9104 32.6143 34.3953C31.567 35.4426 30.4885 36.5211 29.4725 37.5372C28.0344 36.0991 26.4713 34.5516 24.9863 33.051C26.0024 32.035 27.0809 30.9408 28.1438 29.8936Z" fill="url(#paint5_linear_2166_7475)"/>
<path d="M54.2468 46.1343C53.1995 47.1816 52.1366 48.2445 51.1206 49.2605C49.9014 48.0413 48.6352 46.7595 47.4004 45.5247C48.4008 44.5243 49.4793 43.4457 50.511 42.4141C51.7146 43.602 52.9807 44.8525 54.2468 46.1343Z" fill="url(#paint6_linear_2166_7475)"/>
<path d="M45.5403 47.3535C46.7595 48.5727 48.0256 49.8389 49.2292 51.0581C48.2288 52.0585 47.1503 53.137 46.1343 54.153C44.9463 52.9651 43.6645 51.699 42.4453 50.4797C43.4301 49.4793 44.493 48.4008 45.5403 47.3535Z" fill="url(#paint7_linear_2166_7475)"/>
</g>
<defs>
<linearGradient id="paint0_linear_2166_7475" x1="9.36937" y1="-0.000974923" x2="68.8288" y2="79.999" gradientUnits="userSpaceOnUse">
<stop stop-color="#B7E0FC"/>
<stop offset="1" stop-color="#40B3FF"/>
</linearGradient>
<linearGradient id="paint1_linear_2166_7475" x1="25.9366" y1="28.543" x2="60.0605" y2="58.2747" gradientUnits="userSpaceOnUse">
<stop stop-color="white"/>
<stop offset="1" stop-color="white" stop-opacity="0.33"/>
</linearGradient>
<linearGradient id="paint2_linear_2166_7475" x1="21.6655" y1="22.3821" x2="31.2792" y2="30.7498" gradientUnits="userSpaceOnUse">
<stop stop-color="white"/>
<stop offset="1" stop-color="white" stop-opacity="0.33"/>
</linearGradient>
<linearGradient id="paint3_linear_2166_7475" x1="49.945" y1="50.6903" x2="60.0064" y2="59.4399" gradientUnits="userSpaceOnUse">
<stop stop-color="white"/>
<stop offset="1" stop-color="white" stop-opacity="0.33"/>
</linearGradient>
<linearGradient id="paint4_linear_2166_7475" x1="31.0662" y1="26.593" x2="37.6208" y2="32.3111" gradientUnits="userSpaceOnUse">
<stop stop-color="white"/>
<stop offset="1" stop-color="white" stop-opacity="0.33"/>
</linearGradient>
<linearGradient id="paint5_linear_2166_7475" x1="26.1175" y1="31.5135" x2="32.6532" y2="37.1803" gradientUnits="userSpaceOnUse">
<stop stop-color="white"/>
<stop offset="1" stop-color="white" stop-opacity="0.33"/>
</linearGradient>
<linearGradient id="paint6_linear_2166_7475" x1="48.4156" y1="43.8651" x2="54.2714" y2="48.9527" gradientUnits="userSpaceOnUse">
<stop stop-color="white"/>
<stop offset="1" stop-color="white" stop-opacity="0.33"/>
</linearGradient>
<linearGradient id="paint7_linear_2166_7475" x1="43.4513" y1="48.7946" x2="49.2651" y2="53.8341" gradientUnits="userSpaceOnUse">
<stop stop-color="white"/>
<stop offset="1" stop-color="white" stop-opacity="0.33"/>
</linearGradient>
<clipPath id="clip0_2166_7475">
<rect width="40" height="40" fill="white" transform="translate(20 19.999)"/>
</clipPath>
</defs>
</svg>
