<svg width="30" height="30" viewBox="0 0 30 30" fill="none" xmlns="http://www.w3.org/2000/svg">
<circle cx="15" cy="15" r="15" fill="white"/>
<g clip-path="url(#clip0_2042_4174)">
<path d="M22.4002 19.3082C23.0873 19.3082 23.7267 19.5045 24.2659 19.8492C25.2441 18.2214 25.8071 16.3111 25.8071 14.2716C25.8071 8.29662 20.9782 3.45154 15.0232 3.45154C9.06825 3.45154 4.24414 8.29662 4.24414 14.2716C4.24414 16.3111 4.80719 18.2166 5.78538 19.8492C6.32934 19.5093 6.96874 19.3082 7.65108 19.3082H22.4002Z" fill="url(#paint0_linear_2042_4174)"/>
<path d="M13.5232 10.5411C13.5232 10.4618 13.5183 10.3849 13.5208 10.3055C13.5357 10.0278 13.8091 9.86659 14.0576 9.99307C14.1869 10.0575 14.3062 10.1419 14.428 10.2212C15.5713 10.9578 16.7147 11.6968 17.858 12.4358C17.9898 12.5201 18.1091 12.6144 18.119 12.788C18.129 12.9616 18.042 13.0756 17.9028 13.1649C17.4231 13.4724 16.9434 13.7849 16.4636 14.0949C15.6981 14.5884 14.935 15.0819 14.1695 15.5754C14.0775 15.6349 13.9856 15.6821 13.8687 15.6771C13.6798 15.6672 13.5332 15.5283 13.5208 15.3398C13.5158 15.2629 13.5208 15.1836 13.5208 15.1042C13.5556 15.0249 13.6152 14.9703 13.6873 14.9232C14.0477 14.6826 14.4156 14.4594 14.7685 14.2114C15.6285 13.6088 15.7751 12.2399 14.7934 11.486C14.4429 11.2157 14.0651 10.9826 13.7047 10.7271C13.6301 10.6775 13.563 10.623 13.5232 10.5411Z" fill="url(#paint1_linear_2042_4174)"/>
<path d="M13.5231 10.541C13.6648 10.603 13.7816 10.7047 13.9083 10.789C14.1892 10.98 14.4701 11.1684 14.746 11.3644C15.4867 11.8901 15.7302 12.7432 15.3773 13.5665C15.2654 13.8245 15.1014 14.0477 14.8727 14.2138C14.4353 14.5263 13.9779 14.809 13.5256 15.0991C13.5256 14.3105 13.5231 13.5219 13.5231 12.7333C13.5206 12.0042 13.5231 11.2726 13.5231 10.541Z" fill="white"/>
<path d="M22.4 26.0779H7.65091C6.07627 26.0779 4.80225 24.7996 4.80225 23.2197C4.80225 21.6397 6.07627 20.3615 7.65091 20.3615H22.4C23.9746 20.3615 25.2487 21.6397 25.2487 23.2197C25.2487 24.7996 23.9746 26.0779 22.4 26.0779Z" fill="url(#paint2_linear_2042_4174)"/>
<path d="M12.1938 21.5441V23.9283H13.6682V24.3448H11.75V21.5441H12.1938Z" fill="white"/>
<path d="M14.0977 21.568C14.1837 21.5249 14.2696 21.5249 14.3556 21.568C14.4416 21.611 14.4845 21.6877 14.4845 21.793C14.4845 21.8983 14.4416 21.9749 14.3556 22.018C14.2696 22.0611 14.1837 22.0611 14.0977 22.018C14.0117 21.9749 13.9688 21.8983 13.9688 21.793C13.9688 21.6877 14.0117 21.6063 14.0977 21.568ZM14.0165 22.3627V24.3448H14.4272V22.3627H14.0165Z" fill="white"/>
<path d="M16.9035 22.3674L16.0685 24.3543H15.6152L14.7754 22.3674H15.2287L15.4911 23.0042L15.8395 23.9234L16.1496 23.0856L16.4455 22.3674H16.9035Z" fill="white"/>
<path d="M17.4806 23.5117C17.4997 23.6601 17.5665 23.7798 17.681 23.8708C17.7955 23.9618 17.9435 24.0049 18.12 24.0049C18.225 24.0049 18.3347 23.9857 18.4397 23.9474C18.5494 23.9091 18.6306 23.8564 18.6878 23.7942L18.955 24.0527C18.8548 24.1581 18.7308 24.2442 18.5781 24.3017C18.4254 24.3591 18.2679 24.3879 18.1105 24.3879C17.7908 24.3879 17.5331 24.2921 17.3375 24.1054C17.1466 23.9139 17.0464 23.6601 17.0464 23.3442C17.0464 23.0425 17.1418 22.7936 17.3327 22.6021C17.5235 22.4106 17.7717 22.3148 18.0771 22.3148C18.4063 22.3148 18.664 22.4154 18.8453 22.6212C19.0266 22.8223 19.103 23.1191 19.0648 23.5117H17.4806V23.5117ZM18.6831 23.1622C18.6735 23.009 18.6163 22.8941 18.5113 22.8079C18.4063 22.7266 18.2679 22.6835 18.1009 22.6835C17.9482 22.6835 17.8146 22.7266 17.7049 22.8079C17.5951 22.8893 17.5236 23.009 17.4901 23.1622H18.6831Z" fill="white"/>
<path d="M7.89429 24.1342C8.39763 24.1342 8.80567 23.7248 8.80567 23.2197C8.80567 22.7147 8.39763 22.3053 7.89429 22.3053C7.39095 22.3053 6.98291 22.7147 6.98291 23.2197C6.98291 23.7248 7.39095 24.1342 7.89429 24.1342Z" fill="white"/>
<path d="M22.9871 24.1342C23.4904 24.1342 23.8984 23.7248 23.8984 23.2197C23.8984 22.7147 23.4904 22.3053 22.9871 22.3053C22.4837 22.3053 22.0757 22.7147 22.0757 23.2197C22.0757 23.7248 22.4837 24.1342 22.9871 24.1342Z" fill="white"/>
</g>
<defs>
<linearGradient id="paint0_linear_2042_4174" x1="6.47814" y1="3.45154" x2="13.5237" y2="22.1425" gradientUnits="userSpaceOnUse">
<stop stop-color="#BBE897"/>
<stop offset="1" stop-color="#08CD87"/>
</linearGradient>
<linearGradient id="paint1_linear_2042_4174" x1="18.7091" y1="12.4779" x2="12.5819" y2="12.8322" gradientUnits="userSpaceOnUse">
<stop stop-color="white"/>
<stop offset="1" stop-color="white" stop-opacity="0.37"/>
</linearGradient>
<linearGradient id="paint2_linear_2042_4174" x1="9.46082" y1="19.0579" x2="8.85833" y2="28.13" gradientUnits="userSpaceOnUse">
<stop offset="0.060928" stop-color="#FF707C"/>
<stop offset="0.949857" stop-color="#FC1313"/>
</linearGradient>
<clipPath id="clip0_2042_4174">
<rect width="21.563" height="22.6263" fill="white" transform="translate(4.24414 3.45154)"/>
</clipPath>
</defs>
</svg>
