<svg width="80" height="80" viewBox="0 0 80 80" fill="none" xmlns="http://www.w3.org/2000/svg">
<circle opacity="0.8" cx="40" cy="39.999" r="40" fill="url(#paint0_linear_2166_7525)"/>
<g clip-path="url(#clip0_2166_7525)">
<path d="M40.0313 19.999C51.0469 19.999 60 28.9678 60 40.0303C60 51.0928 51.0156 60.0146 39.8906 59.999C28.9063 59.9834 19.9844 50.9678 20 39.8896C20.0156 28.9365 29 19.999 40.0313 19.999ZM45.9688 33.7803C45.7656 33.6084 45.6094 33.4678 45.4531 33.3428C40.5938 29.3428 33.2969 31.7021 31.6875 37.7803C31.5156 38.4053 31.6875 38.6084 32.2813 38.5928C32.75 38.5771 33.2188 38.5615 33.6875 38.5928C34.2188 38.6396 34.4375 38.3896 34.6875 37.9521C35.1875 37.1084 35.6875 36.2178 36.3906 35.5771C38.5 33.6709 42.125 33.8428 43.8906 35.874C43.4219 36.3271 42.9219 36.749 42.5 37.2334C42.3125 37.4521 42.1875 37.8584 42.25 38.1084C42.3125 38.3115 42.7188 38.5303 42.9688 38.5459C44.5781 38.5771 46.1875 38.5771 47.8125 38.5615C48.2969 38.5615 48.5938 38.3115 48.5938 37.7959C48.5938 36.1553 48.6094 34.5146 48.5625 32.874C48.5625 32.624 48.3125 32.2803 48.0938 32.1709C47.9063 32.0771 47.5313 32.2178 47.3438 32.374C46.8906 32.7959 46.4688 33.2646 45.9688 33.7803ZM33.9219 46.2334C34.2344 46.4521 34.4219 46.5771 34.5938 46.7178C36.9531 48.5771 39.6094 49.0928 42.4531 48.249C45.4531 47.3584 47.3125 45.2646 48.2031 42.2959C48.2813 42.0615 48.0938 41.499 47.9844 41.4834C47.2656 41.4053 46.5 41.3271 45.8281 41.499C45.5156 41.5771 45.2969 42.2021 45.1094 42.6084C43.4219 46.0146 38.7188 46.8584 36.0781 44.0928C36.5469 43.6553 37.0781 43.249 37.5 42.7646C37.6875 42.5459 37.8125 42.124 37.7344 41.874C37.6719 41.6709 37.2656 41.4365 37.0156 41.4365C35.4063 41.3896 33.7813 41.4053 32.1719 41.4209C31.7031 41.4209 31.4063 41.6865 31.4063 42.2178C31.4063 43.8271 31.3906 45.4521 31.4375 47.0615C31.4375 47.3271 31.6875 47.7178 31.9219 47.8271C32.1094 47.9209 32.5156 47.7334 32.7188 47.5615C33.1406 47.1709 33.5156 46.7021 33.9219 46.2334Z" fill="url(#paint1_linear_2166_7525)"/>
</g>
<defs>
<linearGradient id="paint0_linear_2166_7525" x1="8.28829" y1="-0.000977116" x2="49.7297" y2="83.6026" gradientUnits="userSpaceOnUse">
<stop stop-color="#D3C7FF"/>
<stop offset="1" stop-color="#6861FF"/>
</linearGradient>
<linearGradient id="paint1_linear_2166_7525" x1="25.9316" y1="28.4764" x2="60.1437" y2="58.2008" gradientUnits="userSpaceOnUse">
<stop stop-color="white"/>
<stop offset="1" stop-color="white" stop-opacity="0.33"/>
</linearGradient>
<clipPath id="clip0_2166_7525">
<rect width="40" height="40" fill="white" transform="translate(20 19.999)"/>
</clipPath>
</defs>
</svg>
