<svg width="1466" height="1018" viewBox="0 0 1466 1018" fill="none" xmlns="http://www.w3.org/2000/svg">
     <style>
      @keyframes pulse {
        0% {
          -webkit-transform: scale(1);
          transform: scale(1);
        }
        70% {
          -webkit-transform: scale(3);
          transform: scale(3);
        }
        100% {
          -webkit-transform: scale(1);
          transform: scale(1);
        }
      } 

      @keyframes rotate {  
        from { 
          -webkit-transform: rotate(360deg);
          transform: rotate(360deg); 
        } 

        to { 
          -webkit-transform: rotate(0deg);
          transform: rotate(0deg);
        }  
      } 

    #dot-1, #dot-2, #dot-3, #dot-4{
      animation: rotate 8s ease-in infinite;
      -webkit-animation: rotate 1s ease-in infinite;
      -webkit-transform-origin: center; -ms-transform-origin: center; transform-origin: center; transform-box: fill-box;
    }
  </style> 
    <path id="dot-1" opacity="0.2" d="M454 47C466.703 47 477 36.7026 477 24C477 11.2975 466.703 1 454 1C441.297 1 431 11.2975 431 24C431 36.7026 441.297 47 454 47Z" fill="url(#paint0_linear_2013_3787)"/>
    <path id="dot-2" opacity="0.2" d="M1443 1018C1455.7 1018 1466 1007.7 1466 995C1466 982.297 1455.7 972 1443 972C1430.3 972 1420 982.297 1420 995C1420 1007.7 1430.3 1018 1443 1018Z" fill="url(#paint1_linear_2013_3787)"/>
    <path id="dot-3" opacity="0.1" d="M123.985 280.35C127.088 278.566 129 275.26 129 271.681V172.319C129 168.74 127.088 165.434 123.985 163.65L37.4204 113.869C34.332 112.093 30.532 112.094 27.4447 113.872L-58.9905 163.649C-62.0899 165.434 -64 168.738 -64 172.315V271.685C-64 275.262 -62.0899 278.566 -58.9905 280.351L27.4447 330.128C30.532 331.906 34.332 331.907 37.4204 330.131L123.985 280.35Z" fill="url(#paint2_linear_2013_3787)"/>
    <path id="dot-4" opacity="0.1" d="M1414.96 104.858C1418.08 103.078 1420 99.7644 1420 96.1757V39.8243C1420 36.2356 1418.08 32.9221 1414.96 31.1417L1365.42 2.83661C1362.35 1.07904 1358.57 1.0802 1355.5 2.83964L1306.03 31.1406C1302.92 32.9218 1301 36.2337 1301 39.8203V96.1797C1301 99.7663 1302.92 103.078 1306.03 104.859L1355.5 133.16C1358.57 134.92 1362.35 134.921 1365.42 133.163L1414.96 104.858Z" fill="url(#paint3_linear_2013_3787)"/>
    <defs>
        <linearGradient id="paint0_linear_2013_3787" x1="468.239" y1="32.3715" x2="431.963" y2="14.9282" gradientUnits="userSpaceOnUse">
            <stop stop-color="#51ABFF"/>
            <stop offset="1" stop-color="#2695FF" stop-opacity="0.35"/>
        </linearGradient>
        <linearGradient id="paint1_linear_2013_3787" x1="1457.24" y1="1003.37" x2="1420.96" y2="985.928" gradientUnits="userSpaceOnUse">
            <stop stop-color="#51ABFF"/>
            <stop offset="1" stop-color="#2695FF" stop-opacity="0.35"/>
        </linearGradient>
        <linearGradient id="paint2_linear_2013_3787" x1="-44.0045" y1="111" x2="80.3503" y2="329.101" gradientUnits="userSpaceOnUse">
            <stop stop-color="#BCDDFF"/>
            <stop offset="1" stop-color="#738CF6"/>
        </linearGradient>
        <linearGradient id="paint3_linear_2013_3787" x1="1313.33" y1="-9.40661e-07" x2="1389.26" y2="134.033" gradientUnits="userSpaceOnUse">
            <stop stop-color="#BCDDFF"/>
            <stop offset="1" stop-color="#738CF6"/>
        </linearGradient>
    </defs>
</svg>
